<svg width="24.000000" height="24.000000" viewBox="0 0 24 24" fill="none" xmlns="http://www.w3.org/2000/svg" xmlns:xlink="http://www.w3.org/1999/xlink">
	<desc>
			Created with Pixso.
	</desc>
	<defs/>
	<path id="Union" d="M19.8613 4.20898L19.8613 4.20898Q20.1072 4.2627 20.3431 4.3623Q20.5789 4.46216 20.7887 4.60083Q21.0183 4.75269 21.217 4.95142Q21.4157 5.15015 21.5675 5.37964Q21.7063 5.5896 21.806 5.82544Q21.9058 6.06128 21.9596 6.30713Q22.0152 6.56152 22.0216 6.82642C22.0261 6.87207 22.0264 6.91772 22.0225 6.96289L22.0225 16.896Q22.0225 17.1973 21.9596 17.4849Q21.9058 17.7307 21.806 17.9666Q21.7063 18.2024 21.5675 18.4124Q21.4157 18.6418 21.217 18.8406Q21.0183 19.0393 20.7887 19.1912L20.7886 19.1912Q20.5788 19.3298 20.3431 19.4297Q20.1072 19.5293 19.8613 19.583Q19.5737 19.646 19.2725 19.646L5.27246 19.646Q4.97119 19.646 4.68365 19.583Q4.4377 19.5293 4.20181 19.4297Q3.96608 19.3298 3.75621 19.1912L3.7562 19.1912Q3.52658 19.0393 3.32791 18.8406Q3.12926 18.6418 2.9774 18.4124L2.97739 18.4124Q2.83859 18.2024 2.73888 17.9666Q2.63911 17.7307 2.58534 17.4849Q2.52246 17.1973 2.52246 16.896L2.52246 6.96289C2.51855 6.91772 2.5188 6.87207 2.5233 6.82642Q2.52974 6.56152 2.58534 6.30713L2.58534 6.30713L2.58534 6.30713Q2.63911 6.06128 2.73888 5.82544Q2.83859 5.5896 2.9774 5.37964L2.9774 5.37964Q3.12927 5.15015 3.32791 4.95142Q3.52658 4.75269 3.7562 4.60083Q3.96606 4.46216 4.20181 4.3623Q4.43768 4.2627 4.68361 4.20898Q4.97116 4.146 5.27246 4.146L19.2725 4.146Q19.5737 4.146 19.8613 4.20898ZM4.02246 8.29736L11.8564 13.52Q12.0454 13.646 12.2725 13.646Q12.4995 13.646 12.6885 13.52L20.5225 8.29736L20.5225 16.896Q20.5225 17.0452 20.4889 17.1865L20.4889 17.1865Q20.4651 17.2864 20.4245 17.3823Q20.3818 17.4834 20.3232 17.574L20.3231 17.574Q20.2516 17.6846 20.1563 17.7798Q20.0611 17.8752 19.9505 17.9468Q19.8598 18.0054 19.7588 18.0481Q19.6629 18.0886 19.563 18.1123L19.563 18.1123Q19.4217 18.146 19.2725 18.146L5.27246 18.146Q5.1232 18.146 4.98192 18.1123L4.9819 18.1123Q4.88202 18.0886 4.78613 18.0481Q4.6851 18.0054 4.59439 17.9465Q4.48381 17.875 4.38858 17.7798Q4.29335 17.6846 4.22182 17.574L4.2218 17.574Q4.16312 17.4834 4.12039 17.3823Q4.07983 17.2864 4.05606 17.1865Q4.02246 17.0452 4.02246 16.896L4.02246 8.29736ZM20.4685 6.53052Q20.4498 6.46924 20.4245 6.40967Q20.3818 6.30859 20.3232 6.21802L20.3231 6.21802Q20.2516 6.10742 20.1563 6.01221Q20.0611 5.91675 19.9505 5.84521Q19.8598 5.78662 19.7588 5.7439Q19.6629 5.70337 19.5631 5.67969L19.563 5.67969Q19.4218 5.646 19.2725 5.646L5.27246 5.646Q5.1232 5.646 4.98192 5.67969L4.9819 5.67969Q4.88202 5.70337 4.78613 5.7439Q4.6851 5.78662 4.59439 5.84546L4.59439 5.84546Q4.48381 5.91699 4.38858 6.01221Q4.29335 6.10742 4.22182 6.21802L4.22182 6.21802Q4.16312 6.30859 4.12039 6.40967Q4.09514 6.46924 4.07642 6.53052L12.2725 11.9946L20.4685 6.53052Z" clip-rule="evenodd" fill="#141718" fill-opacity="1.000000" fill-rule="evenodd"/>
</svg>
