<svg width="262.000000" height="220.000000" viewBox="0 0 262 220" fill="none" xmlns="http://www.w3.org/2000/svg" xmlns:xlink="http://www.w3.org/1999/xlink">
	<desc>
			Created with Pixso.
	</desc>
	<defs>
		<clipPath id="clip50_3717">
			<rect id="communication/outline/call" width="48.000000" height="48.000000" transform="translate(32.000000 48.000000)" fill="white" fill-opacity="0"/>
		</clipPath>
	</defs>
	<rect id="card 3" width="262.000000" height="220.000000" fill="#F3F5F7" fill-opacity="1.000000"/>
	<g clip-path="url(#clip50_3717)">
		<path id="Rectangle 77" d="M74 86C74 88.2091 72.2091 90 70 90C52.3269 90 38 75.6731 38 58C38 55.7909 39.7909 54 42 54L45.2919 54C46.9275 54 48.3983 54.9958 49.0058 56.5144L50.6331 60.5828C51.4057 62.5143 50.5688 64.7156 48.708 65.646L48 66C48 66 49 71 53 75C57 79 62 80 62 80L62.354 79.292C63.2844 77.4313 65.4857 76.5942 67.4173 77.3669L71.4856 78.9943C73.0042 79.6017 74 81.0725 74 82.7081L74 86Z" stroke="#141718" stroke-opacity="1.000000" stroke-width="2.500000" stroke-linejoin="round"/>
	</g>
	<path id="24/7 Support" d="M34.4609 129.899Q36.3799 128.239 37.4883 127.17Q38.6016 126.101 39.3389 124.943Q40.0811 123.781 40.0811 122.619Q40.0811 121.418 39.5098 120.739Q38.9385 120.061 37.7178 120.061Q36.541 120.061 35.8916 120.812Q35.2422 121.56 35.1982 122.819L33.001 122.819Q33.0596 120.539 34.3682 119.333Q35.6816 118.122 37.6982 118.122Q39.8809 118.122 41.1113 119.323Q42.3418 120.52 42.3418 122.521Q42.3418 123.962 41.6094 125.29Q40.8818 126.618 39.8711 127.668Q38.8604 128.718 37.2979 130.1L36.3994 130.9L42.7422 130.9L42.7422 132.8L33.0205 132.8L33.0205 131.14L34.4609 129.899ZM44.458 129.958L44.458 128.239L51.1816 118.601L53.9404 118.601L53.9404 127.98L55.8007 127.98L55.8007 129.958L53.9404 129.958L53.9404 133L51.6992 133L51.6992 129.958L44.458 129.958ZM51.8017 120.92L47.08 127.98L51.8017 127.98L51.8017 120.92ZM65.3814 114.118L59.9419 136.501L57.7007 136.501L63.1206 114.118L65.3814 114.118ZM77.1994 120.178L71.6379 133L69.3381 133L74.9582 120.422L67.5608 120.422L67.5608 118.479L77.1994 118.479L77.1994 120.178ZM89.2391 133.142Q87.8377 133.142 86.7196 132.653Q85.6014 132.16 84.9618 131.262Q84.3221 130.358 84.3221 129.162L86.7586 129.162Q86.8416 130.061 87.4715 130.642Q88.1014 131.218 89.2391 131.218Q90.4207 131.218 91.0799 130.651Q91.7391 130.08 91.7391 129.182Q91.7391 128.479 91.3289 128.039Q90.9188 127.6 90.3084 127.36Q89.6981 127.121 88.619 126.838Q87.2616 126.481 86.412 126.11Q85.5623 125.739 84.9618 124.963Q84.3612 124.182 84.3612 122.878Q84.3612 121.682 84.9618 120.783Q85.5623 119.88 86.6414 119.401Q87.7206 118.918 89.1414 118.918Q91.1581 118.918 92.4471 119.929Q93.7411 120.939 93.8778 122.702L91.3582 122.702Q91.2997 121.94 90.6405 121.403Q89.9813 120.861 88.9022 120.861Q87.9207 120.861 87.3006 121.364Q86.6805 121.862 86.6805 122.8Q86.6805 123.439 87.0711 123.85Q87.4618 124.26 88.0575 124.499Q88.6581 124.738 89.6981 125.021Q91.0799 125.402 91.9491 125.783Q92.8182 126.159 93.4286 126.95Q94.0389 127.741 94.0389 129.06Q94.0389 130.119 93.4676 131.062Q92.9012 131.999 91.8075 132.57Q90.7186 133.142 89.2391 133.142ZM106.719 121.979L106.719 133L104.439 133L104.439 131.701Q103.902 132.38 103.028 132.771Q102.159 133.161 101.182 133.161Q99.8787 133.161 98.8484 132.624Q97.8181 132.082 97.2273 131.022Q96.6414 129.958 96.6414 128.459L96.6414 121.979L98.9021 121.979L98.9021 128.122Q98.9021 129.602 99.6394 130.393Q100.382 131.179 101.661 131.179Q102.94 131.179 103.687 130.393Q104.439 129.602 104.439 128.122L104.439 121.979L106.719 121.979ZM111.999 123.601Q112.58 122.839 113.581 122.321Q114.582 121.799 115.842 121.799Q117.278 121.799 118.469 122.512Q119.66 123.22 120.339 124.499Q121.018 125.778 121.018 127.438Q121.018 129.099 120.339 130.412Q119.66 131.721 118.469 132.453Q117.278 133.181 115.842 133.181Q114.582 133.181 113.601 132.673Q112.619 132.16 111.999 131.398L111.999 138.239L109.719 138.239L109.719 121.979L111.999 121.979L111.999 123.601ZM118.699 127.438Q118.699 126.301 118.23 125.471Q117.761 124.641 116.99 124.211Q116.218 123.781 115.339 123.781Q114.48 123.781 113.708 124.221Q112.942 124.66 112.468 125.5Q111.999 126.34 111.999 127.482Q111.999 128.62 112.468 129.47Q112.942 130.319 113.708 130.759Q114.48 131.198 115.339 131.198Q116.218 131.198 116.99 130.749Q117.761 130.3 118.23 129.44Q118.699 128.581 118.699 127.438ZM125.559 123.601Q126.14 122.839 127.141 122.321Q128.142 121.799 129.402 121.799Q130.838 121.799 132.029 122.512Q133.22 123.22 133.899 124.499Q134.578 125.778 134.578 127.438Q134.578 129.099 133.899 130.412Q133.22 131.721 132.029 132.453Q130.838 133.181 129.402 133.181Q128.142 133.181 127.161 132.673Q126.179 132.16 125.559 131.398L125.559 138.239L123.279 138.239L123.279 121.979L125.559 121.979L125.559 123.601ZM132.259 127.438Q132.259 126.301 131.79 125.471Q131.321 124.641 130.55 124.211Q129.778 123.781 128.899 123.781Q128.04 123.781 127.268 124.221Q126.502 124.66 126.028 125.5Q125.559 126.34 125.559 127.482Q125.559 128.62 126.028 129.47Q126.502 130.319 127.268 130.759Q128.04 131.198 128.899 131.198Q129.778 131.198 130.55 130.749Q131.321 130.3 131.79 129.44Q132.259 128.581 132.259 127.438ZM141.619 133.181Q140.062 133.181 138.802 132.473Q137.542 131.76 136.819 130.471Q136.102 129.182 136.102 127.482Q136.102 125.798 136.839 124.499Q137.581 123.2 138.861 122.502Q140.14 121.799 141.722 121.799Q143.299 121.799 144.578 122.502Q145.858 123.2 146.6 124.499Q147.342 125.798 147.342 127.482Q147.342 129.162 146.58 130.461Q145.819 131.76 144.51 132.473Q143.201 133.181 141.619 133.181ZM141.619 131.198Q142.498 131.198 143.27 130.778Q144.041 130.358 144.52 129.519Q144.998 128.679 144.998 127.482Q144.998 126.281 144.539 125.451Q144.08 124.621 143.319 124.201Q142.562 123.781 141.678 123.781Q140.799 123.781 140.047 124.201Q139.3 124.621 138.861 125.451Q138.421 126.281 138.421 127.482Q138.421 129.26 139.329 130.231Q140.242 131.198 141.619 131.198ZM151.879 123.581Q152.382 122.741 153.212 122.272Q154.042 121.799 155.18 121.799L155.18 124.162L154.599 124.162Q153.261 124.162 152.568 124.841Q151.879 125.52 151.879 127.199L151.879 133L149.599 133L149.599 121.979L151.879 121.979L151.879 123.581ZM159.94 123.84L159.94 129.938Q159.94 130.559 160.228 130.832Q160.521 131.101 161.219 131.101L162.621 131.101L162.621 133L160.819 133Q159.281 133 158.461 132.282Q157.64 131.56 157.64 129.938L157.64 123.84L156.342 123.84L156.342 121.979L157.64 121.979L157.64 119.24L159.94 119.24L159.94 121.979L162.621 121.979L162.621 123.84L159.94 123.84Z" fill="#141718" fill-opacity="1.000000" fill-rule="evenodd"/>
	<path id="Phone and Email support" d="M39.6016 158.099Q39.6016 159.316 38.7676 160.123Q37.937 160.926 36.228 160.926L34.3516 160.926L34.3516 165L33.0767 165L33.0767 155.242L36.228 155.242Q37.8789 155.242 38.7402 156.042Q39.6016 156.838 39.6016 158.099ZM36.228 159.876Q37.291 159.876 37.7935 159.415Q38.2993 158.954 38.2993 158.099Q38.2993 156.291 36.228 156.291L34.3516 156.291L34.3516 159.876L36.228 159.876ZM44.9937 157.187Q45.8584 157.187 46.5591 157.559Q47.2598 157.932 47.6597 158.673Q48.0596 159.415 48.0596 160.478L48.0596 165L46.7984 165L46.7984 160.659Q46.7984 159.511 46.2242 158.902Q45.6499 158.294 44.6553 158.294Q43.647 158.294 43.0523 158.926Q42.4576 159.555 42.4576 160.758L42.4576 165L41.1827 165L41.1827 154.64L42.4576 154.64L42.4576 158.42Q42.837 157.833 43.5 157.511Q44.1665 157.187 44.9937 157.187ZM53.4889 165.126Q52.4122 165.126 51.5372 164.638Q50.6622 164.146 50.1632 163.243Q49.6676 162.341 49.6676 161.151Q49.6676 159.976 50.1768 159.073Q50.6895 158.167 51.5714 157.686Q52.4532 157.204 53.547 157.204Q54.6373 157.204 55.5191 157.686Q56.401 158.167 56.9102 159.063Q57.4229 159.958 57.4229 161.151Q57.4229 162.341 56.8966 163.243Q56.3736 164.146 55.4781 164.638Q54.5826 165.126 53.4889 165.126ZM53.4889 164.005Q54.1759 164.005 54.7774 163.684Q55.379 163.363 55.7481 162.72Q56.1207 162.074 56.1207 161.151Q56.1207 160.225 55.755 159.583Q55.3927 158.937 54.8048 158.622Q54.2169 158.308 53.5333 158.308Q52.8326 158.308 52.2515 158.622Q51.6705 158.937 51.3184 159.583Q50.9698 160.225 50.9698 161.151Q50.9698 162.088 51.3116 162.734Q51.6568 163.376 52.231 163.691Q52.8053 164.005 53.4889 164.005ZM62.8419 157.187Q64.2433 157.187 65.1115 158.034Q65.9796 158.882 65.9796 160.478L65.9796 165L64.7184 165L64.7184 160.659Q64.7184 159.511 64.1442 158.902Q63.5699 158.294 62.5753 158.294Q61.567 158.294 60.9723 158.926Q60.3776 159.555 60.3776 160.758L60.3776 165L59.1027 165L59.1027 157.327L60.3776 157.327L60.3776 158.42Q60.757 157.833 61.4064 157.511Q62.0592 157.187 62.8419 157.187ZM75.0627 160.871Q75.0627 161.233 75.0216 161.64L68.8898 161.64Q68.9616 162.775 69.6657 163.411Q70.3732 164.046 71.3815 164.046Q72.2087 164.046 72.7589 163.664Q73.3127 163.277 73.5382 162.635L74.9089 162.635Q74.6012 163.739 73.6784 164.433Q72.7555 165.126 71.3815 165.126Q70.2912 165.126 69.4298 164.638Q68.5685 164.146 68.0763 163.243Q67.5876 162.341 67.5876 161.151Q67.5876 159.958 68.0627 159.063Q68.5412 158.167 69.3991 157.686Q70.2604 157.204 71.3815 157.204Q72.4753 157.204 73.3127 157.679Q74.1535 158.154 74.6081 158.988Q75.0627 159.818 75.0627 160.871ZM73.7467 160.604Q73.7467 159.876 73.4255 159.354Q73.1042 158.827 72.5505 158.554Q71.9967 158.28 71.3268 158.28Q70.3595 158.28 69.6794 158.896Q69.0026 159.511 68.9035 160.604L73.7467 160.604ZM80.0056 161.138Q80.0056 159.958 80.4807 159.07Q80.9592 158.181 81.7897 157.692Q82.6237 157.204 83.6457 157.204Q84.654 157.204 85.3957 157.638Q86.1374 158.068 86.5031 158.728L86.5031 157.327L87.7883 157.327L87.7883 165L86.5031 165L86.5031 163.571Q86.1237 164.245 85.3752 164.686Q84.6267 165.126 83.632 165.126Q82.6101 165.126 81.7829 164.624Q80.9592 164.118 80.4807 163.209Q80.0056 162.296 80.0056 161.138ZM86.5031 161.151Q86.5031 160.283 86.1511 159.641Q85.8024 158.995 85.2077 158.653Q84.613 158.308 83.8986 158.308Q83.1843 158.308 82.5964 158.646Q82.0085 158.981 81.6564 159.627Q81.3078 160.27 81.3078 161.138Q81.3078 162.02 81.6564 162.669Q82.0085 163.318 82.5964 163.664Q83.1843 164.005 83.8986 164.005Q84.613 164.005 85.2077 163.664Q85.8024 163.318 86.1511 162.669Q86.5031 162.02 86.5031 161.151ZM93.6839 157.187Q95.0853 157.187 95.9534 158.034Q96.8216 158.882 96.8216 160.478L96.8216 165L95.5604 165L95.5604 160.659Q95.5604 159.511 94.9862 158.902Q94.4119 158.294 93.4173 158.294Q92.409 158.294 91.8143 158.926Q91.2196 159.555 91.2196 160.758L91.2196 165L89.9447 165L89.9447 157.327L91.2196 157.327L91.2196 158.42Q91.599 157.833 92.2484 157.511Q92.9012 157.187 93.6839 157.187ZM98.4296 161.138Q98.4296 159.958 98.9047 159.07Q99.3832 158.181 100.214 157.692Q101.048 157.204 102.083 157.204Q102.979 157.204 103.748 157.617Q104.52 158.027 104.927 158.701L104.927 154.64L106.212 154.64L106.212 165L104.927 165L104.927 163.558Q104.548 164.245 103.806 164.686Q103.064 165.126 102.07 165.126Q101.048 165.126 100.214 164.624Q99.3832 164.118 98.9047 163.209Q98.4296 162.296 98.4296 161.138ZM104.927 161.151Q104.927 160.283 104.575 159.641Q104.226 158.995 103.632 158.653Q103.037 158.308 102.323 158.308Q101.608 158.308 101.02 158.646Q100.432 158.981 100.08 159.627Q99.7318 160.27 99.7318 161.138Q99.7318 162.02 100.08 162.669Q100.432 163.318 101.02 163.664Q101.608 164.005 102.323 164.005Q103.037 164.005 103.632 163.664Q104.226 163.318 104.575 162.669Q104.927 162.02 104.927 161.151ZM113.382 156.277L113.382 159.542L116.94 159.542L116.94 160.591L113.382 160.591L113.382 163.951L117.357 163.951L117.357 165L112.107 165L112.107 155.228L117.357 155.228L117.357 156.277L113.382 156.277ZM128.517 157.187Q129.413 157.187 130.11 157.559Q130.811 157.932 131.217 158.673Q131.624 159.415 131.624 160.478L131.624 165L130.363 165L130.363 160.659Q130.363 159.511 129.796 158.902Q129.232 158.294 128.264 158.294Q127.27 158.294 126.682 158.933Q126.094 159.569 126.094 160.772L126.094 165L124.833 165L124.833 160.659Q124.833 159.511 124.265 158.902Q123.701 158.294 122.734 158.294Q121.739 158.294 121.151 158.933Q120.564 159.569 120.564 160.772L120.564 165L119.289 165L119.289 157.327L120.564 157.327L120.564 158.434Q120.943 157.833 121.579 157.511Q122.214 157.187 122.987 157.187Q123.951 157.187 124.692 157.621Q125.438 158.055 125.8 158.896Q126.121 158.085 126.863 157.638Q127.605 157.187 128.517 157.187ZM133.234 161.138Q133.234 159.958 133.709 159.07Q134.187 158.181 135.018 157.692Q135.852 157.204 136.874 157.204Q137.882 157.204 138.624 157.638Q139.365 158.068 139.731 158.728L139.731 157.327L141.016 157.327L141.016 165L139.731 165L139.731 163.571Q139.352 164.245 138.603 164.686Q137.855 165.126 136.86 165.126Q135.838 165.126 135.011 164.624Q134.187 164.118 133.709 163.209Q133.234 162.296 133.234 161.138ZM139.731 161.151Q139.731 160.283 139.379 159.641Q139.03 158.995 138.436 158.653Q137.841 158.308 137.127 158.308Q136.412 158.308 135.824 158.646Q135.236 158.981 134.884 159.627Q134.536 160.27 134.536 161.138Q134.536 162.02 134.884 162.669Q135.236 163.318 135.824 163.664Q136.412 164.005 137.127 164.005Q137.841 164.005 138.436 163.664Q139.03 163.318 139.379 162.669Q139.731 162.02 139.731 161.151ZM143.832 156.083Q143.467 156.083 143.214 155.83Q142.964 155.577 142.964 155.214Q142.964 154.849 143.214 154.599Q143.467 154.346 143.832 154.346Q144.181 154.346 144.427 154.599Q144.673 154.849 144.673 155.214Q144.673 155.577 144.427 155.83Q144.181 156.083 143.832 156.083ZM144.448 157.327L144.448 165L143.173 165L143.173 157.327L144.448 157.327ZM147.892 154.64L147.892 165L146.617 165L146.617 154.64L147.892 154.64ZM156.516 165.126Q155.634 165.126 154.933 164.826Q154.233 164.525 153.826 163.985Q153.423 163.445 153.382 162.748L154.698 162.748Q154.752 163.318 155.234 163.684Q155.72 164.046 156.502 164.046Q157.23 164.046 157.651 163.725Q158.071 163.404 158.071 162.915Q158.071 162.409 157.623 162.167Q157.176 161.92 156.236 161.681Q155.381 161.459 154.841 161.23Q154.305 160.998 153.918 160.543Q153.535 160.085 153.535 159.343Q153.535 158.755 153.884 158.267Q154.233 157.774 154.875 157.491Q155.521 157.204 156.348 157.204Q157.623 157.204 158.406 157.846Q159.189 158.489 159.247 159.61L157.972 159.61Q157.931 159.008 157.49 158.646Q157.049 158.28 156.307 158.28Q155.62 158.28 155.214 158.574Q154.807 158.868 154.807 159.343Q154.807 159.723 155.053 159.969Q155.299 160.211 155.668 160.358Q156.041 160.505 156.697 160.687Q157.524 160.912 158.04 161.131Q158.56 161.346 158.929 161.78Q159.302 162.214 159.315 162.915Q159.315 163.544 158.963 164.05Q158.615 164.552 157.979 164.839Q157.343 165.126 156.516 165.126ZM167.912 157.327L167.912 165L166.637 165L166.637 163.865Q166.275 164.453 165.622 164.785Q164.972 165.113 164.19 165.113Q163.291 165.113 162.576 164.744Q161.865 164.371 161.452 163.629Q161.038 162.888 161.038 161.821L161.038 157.327L162.3 157.327L162.3 161.654Q162.3 162.789 162.87 163.397Q163.445 164.005 164.439 164.005Q165.461 164.005 166.049 163.376Q166.637 162.748 166.637 161.541L166.637 157.327L167.912 157.327ZM171.342 158.742Q171.721 158.085 172.47 157.645Q173.218 157.204 174.213 157.204Q175.235 157.204 176.065 157.692Q176.899 158.181 177.374 159.07Q177.853 159.958 177.853 161.138Q177.853 162.296 177.374 163.209Q176.899 164.118 176.065 164.624Q175.235 165.126 174.213 165.126Q173.232 165.126 172.483 164.686Q171.735 164.245 171.342 163.585L171.342 168.64L170.067 168.64L170.067 157.327L171.342 157.327L171.342 158.742ZM176.551 161.138Q176.551 160.27 176.199 159.627Q175.85 158.981 175.255 158.646Q174.66 158.308 173.946 158.308Q173.245 158.308 172.651 158.653Q172.056 158.995 171.697 159.647Q171.342 160.297 171.342 161.151Q171.342 162.02 171.697 162.669Q172.056 163.318 172.651 163.664Q173.245 164.005 173.946 164.005Q174.66 164.005 175.255 163.664Q175.85 163.318 176.199 162.669Q176.551 162.02 176.551 161.138ZM180.806 158.742Q181.185 158.085 181.934 157.645Q182.682 157.204 183.677 157.204Q184.699 157.204 185.529 157.692Q186.363 158.181 186.838 159.07Q187.317 159.958 187.317 161.138Q187.317 162.296 186.838 163.209Q186.363 164.118 185.529 164.624Q184.699 165.126 183.677 165.126Q182.696 165.126 181.947 164.686Q181.199 164.245 180.806 163.585L180.806 168.64L179.531 168.64L179.531 157.327L180.806 157.327L180.806 158.742ZM186.015 161.138Q186.015 160.27 185.663 159.627Q185.314 158.981 184.719 158.646Q184.124 158.308 183.41 158.308Q182.709 158.308 182.115 158.653Q181.52 158.995 181.161 159.647Q180.806 160.297 180.806 161.151Q180.806 162.02 181.161 162.669Q181.52 163.318 182.115 163.664Q182.709 164.005 183.41 164.005Q184.124 164.005 184.719 163.664Q185.314 163.318 185.663 162.669Q186.015 162.02 186.015 161.138ZM192.341 165.126Q191.264 165.126 190.389 164.638Q189.514 164.146 189.015 163.243Q188.52 162.341 188.52 161.151Q188.52 159.976 189.029 159.073Q189.542 158.167 190.423 157.686Q191.305 157.204 192.399 157.204Q193.489 157.204 194.371 157.686Q195.253 158.167 195.762 159.063Q196.275 159.958 196.275 161.151Q196.275 162.341 195.749 163.243Q195.226 164.146 194.33 164.638Q193.435 165.126 192.341 165.126ZM192.341 164.005Q193.028 164.005 193.629 163.684Q194.231 163.363 194.6 162.72Q194.973 162.074 194.973 161.151Q194.973 160.225 194.607 159.583Q194.245 158.937 193.657 158.622Q193.069 158.308 192.385 158.308Q191.685 158.308 191.104 158.622Q190.523 158.937 190.17 159.583Q189.822 160.225 189.822 161.151Q189.822 162.088 190.164 162.734Q190.509 163.376 191.083 163.691Q191.657 164.005 192.341 164.005ZM199.23 158.574Q199.565 157.915 200.187 157.552Q200.812 157.187 201.708 157.187L201.708 158.502L201.373 158.502Q199.23 158.502 199.23 160.827L199.23 165L197.955 165L197.955 157.327L199.23 157.327L199.23 158.574ZM204.732 158.379L204.732 162.901Q204.732 163.458 204.968 163.691Q205.207 163.923 205.795 163.923L206.735 163.923L206.735 165L205.586 165Q204.523 165 203.99 164.511Q203.457 164.019 203.457 162.901L203.457 158.379L202.462 158.379L202.462 157.327L203.457 157.327L203.457 155.396L204.732 155.396L204.732 157.327L206.735 157.327L206.735 158.379L204.732 158.379Z" fill="#6C7275" fill-opacity="1.000000" fill-rule="evenodd"/>
</svg>
