<svg width="262.000000" height="220.000000" viewBox="0 0 262 220" fill="none" xmlns="http://www.w3.org/2000/svg" xmlns:xlink="http://www.w3.org/1999/xlink">
	<desc>
			Created with Pixso.
	</desc>
	<defs>
		<clipPath id="clip50_3701">
			<rect id="interface/outline/lock 01" width="48.000000" height="48.000000" transform="translate(32.000000 48.000000)" fill="white" fill-opacity="0"/>
		</clipPath>
	</defs>
	<rect id="card 4" width="262.000000" height="220.000000" fill="#F3F5F7" fill-opacity="1.000000"/>
	<g clip-path="url(#clip50_3701)">
		<path id="Vector" d="M64 64C68.4183 64 72 67.5817 72 72L72 84C72 88.4183 68.4183 92 64 92L48 92C43.5817 92 40 88.4182 40 84L40 72C40 67.5817 43.5817 64 48 64L64 64ZM48 64L48 60C48 55.5817 51.5817 52 56 52C60.4183 52 64 55.5817 64 60L64 64M56 80L56 76" stroke="#141718" stroke-opacity="1.000000" stroke-width="2.500000" stroke-linecap="round"/>
	</g>
	<path id="Secure Payments" d="M38.0791 133.142Q36.6777 133.142 35.5596 132.653Q34.4414 132.16 33.8018 131.262Q33.1621 130.358 33.1621 129.162L35.5986 129.162Q35.6816 130.061 36.3115 130.642Q36.9414 131.218 38.0791 131.218Q39.2607 131.218 39.9199 130.651Q40.5791 130.08 40.5791 129.182Q40.5791 128.479 40.1689 128.039Q39.7588 127.6 39.1484 127.36Q38.5381 127.121 37.459 126.838Q36.1016 126.481 35.252 126.11Q34.4023 125.739 33.8018 124.963Q33.2012 124.182 33.2012 122.878Q33.2012 121.682 33.8018 120.783Q34.4023 119.88 35.4814 119.401Q36.5605 118.918 37.9814 118.918Q39.998 118.918 41.2871 119.929Q42.5811 120.939 42.7178 122.702L40.1982 122.702Q40.1396 121.94 39.4805 121.403Q38.8213 120.861 37.7422 120.861Q36.7607 120.861 36.1406 121.364Q35.5205 121.862 35.5205 122.8Q35.5205 123.439 35.9111 123.85Q36.3018 124.26 36.8975 124.499Q37.498 124.738 38.5381 125.021Q39.9199 125.402 40.7891 125.783Q41.6582 126.159 42.2686 126.95Q42.8789 127.741 42.8789 129.06Q42.8789 130.119 42.3076 131.062Q41.7412 131.999 40.6475 132.57Q39.5586 133.142 38.0791 133.142ZM55.6816 127.219Q55.6816 127.839 55.5986 128.342L47.1806 128.342Q47.2782 129.66 48.1572 130.461Q49.0409 131.262 50.3202 131.262Q52.1611 131.262 52.9179 129.719L55.3788 129.719Q54.8808 131.242 53.5673 132.214Q52.2587 133.181 50.3202 133.181Q48.7382 133.181 47.4882 132.473Q46.2382 131.76 45.5302 130.471Q44.8222 129.182 44.8222 127.482Q44.8222 125.778 45.5107 124.489Q46.1991 123.2 47.4491 122.502Q48.6991 121.799 50.3202 121.799Q51.8779 121.799 53.0986 122.482Q54.3193 123.161 54.998 124.392Q55.6816 125.622 55.6816 127.219ZM53.2988 126.501Q53.2792 125.241 52.4003 124.479Q51.5214 123.718 50.2177 123.718Q49.0409 123.718 48.2011 124.47Q47.3613 125.222 47.2001 126.501L53.2988 126.501ZM57.1622 127.482Q57.1622 125.778 57.8507 124.489Q58.5391 123.2 59.7598 122.502Q60.9805 121.799 62.5577 121.799Q64.5596 121.799 65.8682 122.751Q67.1817 123.698 67.6407 125.461L65.1798 125.461Q64.8819 124.641 64.2178 124.182Q63.5587 123.718 62.5577 123.718Q61.1612 123.718 60.3311 124.709Q59.5011 125.7 59.5011 127.482Q59.5011 129.26 60.3311 130.261Q61.1612 131.262 62.5577 131.262Q64.5401 131.262 65.1798 129.519L67.6407 129.519Q67.1622 131.198 65.8389 132.189Q64.5206 133.181 62.5577 133.181Q60.9805 133.181 59.7598 132.473Q58.5391 131.76 57.8507 130.471Q57.1622 129.182 57.1622 127.482ZM79.8995 121.979L79.8995 133L77.6192 133L77.6192 131.701Q77.0821 132.38 76.2081 132.771Q75.3389 133.161 74.3624 133.161Q73.0587 133.161 72.0284 132.624Q70.9981 132.082 70.4073 131.022Q69.8214 129.958 69.8214 128.459L69.8214 121.979L72.0821 121.979L72.0821 128.122Q72.0821 129.602 72.8194 130.393Q73.5616 131.179 74.8409 131.179Q76.1202 131.179 76.8673 130.393Q77.6192 129.602 77.6192 128.122L77.6192 121.979L79.8995 121.979ZM85.1793 123.581Q85.6822 122.741 86.5123 122.272Q87.3424 121.799 88.4801 121.799L88.4801 124.162L87.899 124.162Q86.5611 124.162 85.8678 124.841Q85.1793 125.52 85.1793 127.199L85.1793 133L82.899 133L82.899 121.979L85.1793 121.979L85.1793 123.581ZM100.682 127.219Q100.682 127.839 100.599 128.342L92.1806 128.342Q92.2782 129.66 93.1572 130.461Q94.0409 131.262 95.3202 131.262Q97.1611 131.262 97.9179 129.719L100.379 129.719Q99.8808 131.242 98.5673 132.214Q97.2587 133.181 95.3202 133.181Q93.7382 133.181 92.4882 132.473Q91.2382 131.76 90.5302 130.471Q89.8222 129.182 89.8222 127.482Q89.8222 125.778 90.5107 124.489Q91.1991 123.2 92.4491 122.502Q93.6991 121.799 95.3202 121.799Q96.8779 121.799 98.0986 122.482Q99.3193 123.161 99.998 124.392Q100.682 125.622 100.682 127.219ZM98.2988 126.501Q98.2792 125.241 97.4003 124.479Q96.5214 123.718 95.2177 123.718Q94.0409 123.718 93.2011 124.47Q92.3613 125.222 92.2001 126.501L98.2988 126.501ZM117.841 123.239Q117.841 124.299 117.338 125.241Q116.84 126.179 115.736 126.77Q114.638 127.36 112.919 127.36L110.399 127.36L110.399 133L108.119 133L108.119 119.099L112.919 119.099Q114.52 119.099 115.629 119.65Q116.742 120.202 117.289 121.145Q117.841 122.082 117.841 123.239ZM112.919 125.5Q114.218 125.5 114.857 124.909Q115.502 124.318 115.502 123.239Q115.502 120.959 112.919 120.959L110.399 120.959L110.399 125.5L112.919 125.5ZM119.262 127.438Q119.262 125.778 119.951 124.499Q120.639 123.22 121.831 122.512Q123.022 121.799 124.462 121.799Q125.761 121.799 126.728 122.312Q127.7 122.819 128.281 123.581L128.281 121.979L130.581 121.979L130.581 133L128.281 133L128.281 131.359Q127.7 132.141 126.699 132.663Q125.698 133.181 124.418 133.181Q123.002 133.181 121.821 132.453Q120.639 131.721 119.951 130.412Q119.262 129.099 119.262 127.438ZM128.281 127.482Q128.281 126.34 127.807 125.5Q127.338 124.66 126.577 124.221Q125.82 123.781 124.941 123.781Q124.062 123.781 123.3 124.211Q122.539 124.641 122.07 125.471Q121.601 126.301 121.601 127.438Q121.601 128.581 122.07 129.44Q122.539 130.3 123.31 130.749Q124.082 131.198 124.941 131.198Q125.82 131.198 126.577 130.759Q127.338 130.319 127.807 129.47Q128.281 128.62 128.281 127.482ZM143.501 121.979L136.738 138.181L134.38 138.181L136.621 132.819L132.28 121.979L134.819 121.979L137.92 130.378L141.138 121.979L143.501 121.979ZM158.559 121.799Q159.858 121.799 160.888 122.341Q161.918 122.878 162.509 123.942Q163.1 125.002 163.1 126.501L163.1 133L160.839 133L160.839 126.838Q160.839 125.358 160.097 124.572Q159.36 123.781 158.08 123.781Q156.801 123.781 156.049 124.572Q155.302 125.358 155.302 126.838L155.302 133L153.041 133L153.041 126.838Q153.041 125.358 152.299 124.572Q151.562 123.781 150.278 123.781Q148.998 123.781 148.246 124.572Q147.499 125.358 147.499 126.838L147.499 133L145.219 133L145.219 121.979L147.499 121.979L147.499 123.239Q148.061 122.561 148.92 122.18Q149.78 121.799 150.761 121.799Q152.079 121.799 153.119 122.36Q154.159 122.922 154.721 123.981Q155.219 122.98 156.279 122.39Q157.338 121.799 158.559 121.799ZM176.102 127.219Q176.102 127.839 176.019 128.342L167.601 128.342Q167.698 129.66 168.577 130.461Q169.461 131.262 170.74 131.262Q172.581 131.262 173.338 129.719L175.799 129.719Q175.301 131.242 173.987 132.214Q172.679 133.181 170.74 133.181Q169.158 133.181 167.908 132.473Q166.658 131.76 165.95 130.471Q165.242 129.182 165.242 127.482Q165.242 125.778 165.931 124.489Q166.619 123.2 167.869 122.502Q169.119 121.799 170.74 121.799Q172.298 121.799 173.519 122.482Q174.739 123.161 175.418 124.392Q176.102 125.622 176.102 127.219ZM173.719 126.501Q173.699 125.241 172.82 124.479Q171.941 123.718 170.638 123.718Q169.461 123.718 168.621 124.47Q167.781 125.222 167.62 126.501L173.719 126.501ZM183.901 121.799Q185.199 121.799 186.23 122.341Q187.26 122.878 187.841 123.942Q188.422 125.002 188.422 126.501L188.422 133L186.161 133L186.161 126.838Q186.161 125.358 185.419 124.572Q184.682 123.781 183.398 123.781Q182.118 123.781 181.366 124.572Q180.619 125.358 180.619 126.838L180.619 133L178.339 133L178.339 121.979L180.619 121.979L180.619 123.239Q181.181 122.561 182.05 122.18Q182.919 121.799 183.901 121.799ZM193.98 123.84L193.98 129.938Q193.98 130.559 194.268 130.832Q194.561 131.101 195.259 131.101L196.661 131.101L196.661 133L194.859 133Q193.321 133 192.501 132.282Q191.68 131.56 191.68 129.938L191.68 123.84L190.382 123.84L190.382 121.979L191.68 121.979L191.68 119.24L193.98 119.24L193.98 121.979L196.661 121.979L196.661 123.84L193.98 123.84ZM202.758 133.181Q201.459 133.181 200.429 132.712Q199.399 132.238 198.798 131.433Q198.202 130.622 198.158 129.621L200.522 129.621Q200.58 130.319 201.191 130.793Q201.801 131.262 202.719 131.262Q203.681 131.262 204.208 130.891Q204.74 130.52 204.74 129.938Q204.74 129.318 204.15 129.021Q203.559 128.718 202.28 128.361Q201.039 128.02 200.258 127.702Q199.482 127.38 198.91 126.721Q198.339 126.062 198.339 124.982Q198.339 124.099 198.857 123.371Q199.379 122.639 200.346 122.219Q201.318 121.799 202.582 121.799Q204.462 121.799 205.61 122.751Q206.762 123.698 206.84 125.339L204.56 125.339Q204.501 124.602 203.959 124.162Q203.422 123.718 202.499 123.718Q201.601 123.718 201.117 124.06Q200.639 124.401 200.639 124.958Q200.639 125.402 200.956 125.7Q201.279 125.998 201.738 126.169Q202.201 126.34 203.1 126.599Q204.301 126.921 205.068 127.253Q205.839 127.58 206.401 128.22Q206.962 128.859 206.982 129.919Q206.982 130.861 206.459 131.604Q205.942 132.341 204.989 132.761Q204.042 133.181 202.758 133.181Z" fill="#141718" fill-opacity="1.000000" fill-rule="evenodd"/>
	<path id="Secured by Stripe" d="M36.1733 165.099Q35.2061 165.099 34.4438 164.757Q33.6816 164.412 33.2476 163.804Q32.8135 163.195 32.7964 162.396L34.1567 162.396Q34.2251 163.083 34.7207 163.551Q35.2197 164.019 36.1733 164.019Q37.0825 164.019 37.6055 163.564Q38.1318 163.11 38.1318 162.396Q38.1318 161.835 37.8242 161.486Q37.5166 161.138 37.0518 160.957Q36.5903 160.772 35.8076 160.563Q34.8403 160.311 34.2593 160.058Q33.6816 159.805 33.2681 159.268Q32.8545 158.728 32.8545 157.819Q32.8545 157.019 33.2578 156.404Q33.6646 155.789 34.3994 155.454Q35.1377 155.115 36.0879 155.115Q37.4585 155.115 38.3335 155.802Q39.2085 156.489 39.3213 157.621L37.9233 157.621Q37.8516 157.063 37.332 156.636Q36.8159 156.209 35.9614 156.209Q35.165 156.209 34.6592 156.623Q34.1567 157.033 34.1567 157.774Q34.1567 158.308 34.4575 158.646Q34.7583 158.981 35.1992 159.155Q35.6401 159.33 36.4365 159.555Q37.4038 159.818 37.9917 160.078Q38.5796 160.338 39 160.878Q39.4204 161.415 39.4204 162.341Q39.4204 163.055 39.041 163.684Q38.665 164.313 37.9233 164.706Q37.1816 165.099 36.1733 165.099ZM48.2947 160.871Q48.2947 161.233 48.2536 161.64L42.1218 161.64Q42.1936 162.775 42.8977 163.411Q43.6052 164.046 44.6135 164.046Q45.4407 164.046 45.991 163.664Q46.5447 163.277 46.7702 162.635L48.1409 162.635Q47.8332 163.739 46.9104 164.433Q45.9875 165.126 44.6135 165.126Q43.5232 165.126 42.6618 164.638Q41.8005 164.146 41.3083 163.243Q40.8196 162.341 40.8196 161.151Q40.8196 159.958 41.2947 159.063Q41.7732 158.167 42.6311 157.686Q43.4924 157.204 44.6135 157.204Q45.7073 157.204 46.5447 157.679Q47.3855 158.154 47.8401 158.988Q48.2947 159.818 48.2947 160.871ZM46.9787 160.604Q46.9787 159.876 46.6575 159.354Q46.3362 158.827 45.7825 158.554Q45.2287 158.28 44.5588 158.28Q43.5915 158.28 42.9114 158.896Q42.2346 159.511 42.1355 160.604L46.9787 160.604ZM49.4996 161.151Q49.4996 159.958 49.9747 159.07Q50.4532 158.181 51.2974 157.692Q52.1451 157.204 53.2388 157.204Q54.6504 157.204 55.5665 157.891Q56.4859 158.574 56.7798 159.791L55.4092 159.791Q55.211 159.09 54.6436 158.687Q54.0796 158.28 53.2388 158.28Q52.1451 158.28 51.4717 159.029Q50.8018 159.777 50.8018 161.151Q50.8018 162.536 51.4717 163.291Q52.1451 164.046 53.2388 164.046Q54.0796 164.046 54.6368 163.657Q55.1973 163.264 55.4092 162.536L56.7798 162.536Q56.4722 163.711 55.546 164.419Q54.6231 165.126 53.2388 165.126Q52.1451 165.126 51.2974 164.638Q50.4532 164.146 49.9747 163.25Q49.4996 162.354 49.4996 161.151ZM65.2778 157.327L65.2778 165L64.0029 165L64.0029 163.865Q63.6406 164.453 62.9878 164.785Q62.3384 165.113 61.5557 165.113Q60.6567 165.113 59.9424 164.744Q59.2314 164.371 58.8179 163.629Q58.4043 162.888 58.4043 161.821L58.4043 157.327L59.6655 157.327L59.6655 161.654Q59.6655 162.789 60.2363 163.397Q60.8106 164.005 61.8052 164.005Q62.8272 164.005 63.415 163.376Q64.0029 162.748 64.0029 161.541L64.0029 157.327L65.2778 157.327ZM68.7076 158.574Q69.0425 157.915 69.6646 157.552Q70.2901 157.187 71.1856 157.187L71.1856 158.502L70.8506 158.502Q68.7076 158.502 68.7076 160.827L68.7076 165L67.4327 165L67.4327 157.327L68.7076 157.327L68.7076 158.574ZM79.6547 160.871Q79.6547 161.233 79.6136 161.64L73.4818 161.64Q73.5536 162.775 74.2577 163.411Q74.9652 164.046 75.9735 164.046Q76.8007 164.046 77.351 163.664Q77.9047 163.277 78.1302 162.635L79.5009 162.635Q79.1932 163.739 78.2704 164.433Q77.3475 165.126 75.9735 165.126Q74.8832 165.126 74.0219 164.638Q73.1605 164.146 72.6683 163.243Q72.1796 162.341 72.1796 161.151Q72.1796 159.958 72.6547 159.063Q73.1332 158.167 73.9911 157.686Q74.8524 157.204 75.9735 157.204Q77.0673 157.204 77.9047 157.679Q78.7455 158.154 79.2001 158.988Q79.6547 159.818 79.6547 160.871ZM78.3387 160.604Q78.3387 159.876 78.0175 159.354Q77.6962 158.827 77.1425 158.554Q76.5887 158.28 75.9188 158.28Q74.9515 158.28 74.2714 158.896Q73.5946 159.511 73.4955 160.604L78.3387 160.604ZM80.8596 161.138Q80.8596 159.958 81.3347 159.07Q81.8132 158.181 82.6437 157.692Q83.4777 157.204 84.5134 157.204Q85.4089 157.204 86.1779 157.617Q86.9504 158.027 87.3571 158.701L87.3571 154.64L88.6423 154.64L88.6423 165L87.3571 165L87.3571 163.558Q86.9777 164.245 86.236 164.686Q85.4943 165.126 84.4997 165.126Q83.4777 165.126 82.6437 164.624Q81.8132 164.118 81.3347 163.209Q80.8596 162.296 80.8596 161.138ZM87.3571 161.151Q87.3571 160.283 87.0051 159.641Q86.6564 158.995 86.0617 158.653Q85.467 158.308 84.7526 158.308Q84.0383 158.308 83.4504 158.646Q82.8625 158.981 82.5104 159.627Q82.1618 160.27 82.1618 161.138Q82.1618 162.02 82.5104 162.669Q82.8625 163.318 83.4504 163.664Q84.0383 164.005 84.7526 164.005Q85.467 164.005 86.0617 163.664Q86.6564 163.318 87.0051 162.669Q87.3571 162.02 87.3571 161.151ZM95.8116 158.755Q96.2046 158.068 96.96 157.638Q97.7154 157.204 98.6827 157.204Q99.7183 157.204 100.542 157.692Q101.369 158.181 101.844 159.07Q102.323 159.958 102.323 161.138Q102.323 162.296 101.844 163.209Q101.369 164.118 100.535 164.624Q99.7046 165.126 98.6827 165.126Q97.688 165.126 96.9395 164.692Q96.191 164.258 95.8116 163.585L95.8116 165L94.5367 165L94.5367 154.64L95.8116 154.64L95.8116 158.755ZM101.021 161.138Q101.021 160.27 100.668 159.627Q100.32 158.981 99.7251 158.646Q99.1304 158.308 98.4161 158.308Q97.7154 158.308 97.1206 158.653Q96.5259 158.995 96.167 159.647Q95.8116 160.297 95.8116 161.151Q95.8116 162.02 96.167 162.669Q96.5259 163.318 97.1206 163.664Q97.7154 164.005 98.4161 164.005Q99.1304 164.005 99.7251 163.664Q100.32 163.318 100.668 162.669Q101.021 162.02 101.021 161.138ZM110.611 157.327L105.99 168.613L104.674 168.613L106.185 164.915L103.091 157.327L104.507 157.327L106.913 163.544L109.295 157.327L110.611 157.327ZM118.717 165.099Q117.75 165.099 116.988 164.757Q116.226 164.412 115.792 163.804Q115.357 163.195 115.34 162.396L116.701 162.396Q116.769 163.083 117.265 163.551Q117.764 164.019 118.717 164.019Q119.627 164.019 120.149 163.564Q120.676 163.11 120.676 162.396Q120.676 161.835 120.368 161.486Q120.061 161.138 119.596 160.957Q119.134 160.772 118.352 160.563Q117.384 160.311 116.803 160.058Q116.226 159.805 115.812 159.268Q115.398 158.728 115.398 157.819Q115.398 157.019 115.802 156.404Q116.209 155.789 116.943 155.454Q117.682 155.115 118.632 155.115Q120.002 155.115 120.877 155.802Q121.752 156.489 121.865 157.621L120.467 157.621Q120.396 157.063 119.876 156.636Q119.36 156.209 118.505 156.209Q117.709 156.209 117.203 156.623Q116.701 157.033 116.701 157.774Q116.701 158.308 117.002 158.646Q117.302 158.981 117.743 159.155Q118.184 159.33 118.981 159.555Q119.948 159.818 120.536 160.078Q121.124 160.338 121.544 160.878Q121.964 161.415 121.964 162.341Q121.964 163.055 121.585 163.684Q121.209 164.313 120.467 164.706Q119.726 165.099 118.717 165.099ZM125.394 158.379L125.394 162.901Q125.394 163.458 125.63 163.691Q125.869 163.923 126.457 163.923L127.397 163.923L127.397 165L126.248 165Q125.185 165 124.652 164.511Q124.119 164.019 124.119 162.901L124.119 158.379L123.124 158.379L123.124 157.327L124.119 157.327L124.119 155.396L125.394 155.396L125.394 157.327L127.397 157.327L127.397 158.379L125.394 158.379ZM130.21 158.574Q130.545 157.915 131.167 157.552Q131.792 157.187 132.688 157.187L132.688 158.502L132.353 158.502Q130.21 158.502 130.21 160.827L130.21 165L128.935 165L128.935 157.327L130.21 157.327L130.21 158.574ZM134.816 156.083Q134.451 156.083 134.198 155.83Q133.948 155.577 133.948 155.214Q133.948 154.849 134.198 154.599Q134.451 154.346 134.816 154.346Q135.165 154.346 135.411 154.599Q135.657 154.849 135.657 155.214Q135.657 155.577 135.411 155.83Q135.165 156.083 134.816 156.083ZM135.432 157.327L135.432 165L134.157 165L134.157 157.327L135.432 157.327ZM138.876 158.742Q139.255 158.085 140.003 157.645Q140.752 157.204 141.747 157.204Q142.769 157.204 143.599 157.692Q144.433 158.181 144.908 159.07Q145.387 159.958 145.387 161.138Q145.387 162.296 144.908 163.209Q144.433 164.118 143.599 164.624Q142.769 165.126 141.747 165.126Q140.766 165.126 140.017 164.686Q139.269 164.245 138.876 163.585L138.876 168.64L137.601 168.64L137.601 157.327L138.876 157.327L138.876 158.742ZM144.085 161.138Q144.085 160.27 143.732 159.627Q143.384 158.981 142.789 158.646Q142.194 158.308 141.48 158.308Q140.779 158.308 140.185 158.653Q139.59 158.995 139.231 159.647Q138.876 160.297 138.876 161.151Q138.876 162.02 139.231 162.669Q139.59 163.318 140.185 163.664Q140.779 164.005 141.48 164.005Q142.194 164.005 142.789 163.664Q143.384 163.318 143.732 162.669Q144.085 162.02 144.085 161.138ZM154.065 160.871Q154.065 161.233 154.024 161.64L147.892 161.64Q147.964 162.775 148.668 163.411Q149.375 164.046 150.384 164.046Q151.211 164.046 151.761 163.664Q152.315 163.277 152.54 162.635L153.911 162.635Q153.603 163.739 152.68 164.433Q151.758 165.126 150.384 165.126Q149.293 165.126 148.432 164.638Q147.571 164.146 147.078 163.243Q146.59 162.341 146.59 161.151Q146.59 159.958 147.065 159.063Q147.543 158.167 148.401 157.686Q149.262 157.204 150.384 157.204Q151.477 157.204 152.315 157.679Q153.155 158.154 153.61 158.988Q154.065 159.818 154.065 160.871ZM152.749 160.604Q152.749 159.876 152.427 159.354Q152.106 158.827 151.552 158.554Q150.999 158.28 150.329 158.28Q149.362 158.28 148.681 158.896Q148.005 159.511 147.905 160.604L152.749 160.604Z" fill="#6C7275" fill-opacity="1.000000" fill-rule="evenodd"/>
</svg>
