<svg width="262.000000" height="220.000000" viewBox="0 0 262 220" fill="none" xmlns="http://www.w3.org/2000/svg" xmlns:xlink="http://www.w3.org/1999/xlink">
	<desc>
			Created with Pixso.
	</desc>
	<defs>
		<clipPath id="clip7_17076">
			<rect id="shipping and delivery/outline/fast delivery" width="48.000000" height="48.000000" transform="translate(32.000000 48.000000)" fill="white" fill-opacity="0"/>
		</clipPath>
	</defs>
	<rect id="card 01" width="262.000000" height="220.000000" fill="#F3F5F7" fill-opacity="1.000000"/>
	<g clip-path="url(#clip7_17076)">
		<path id="Vector" d="M42.0077 85.75C38.5533 84.8645 36 81.7305 36 78L36 62C36 57.5817 39.5817 54 44 54L52 54C56.4183 54 60 57.5817 60 62L60 86M60 62L66.4182 62C67.4344 62 68.4126 62.3868 69.154 63.0819L74.7358 68.3148C75.5424 69.0709 76 70.1273 76 71.2329L76 82C76 84.2091 74.2091 86 72 86M46 90C43.7908 90 42 88.2091 42 86C42 85.916 42.0026 85.8326 42.0077 85.75C42.1368 83.6572 43.8748 82 46 82C48.2092 82 50 83.7909 50 86C50 88.2091 48.2092 90 46 90ZM68 90C65.7909 90 64 88.2091 64 86C64 83.7909 65.7909 82 68 82C70.2091 82 72 83.7909 72 86C72 88.2091 70.2091 90 68 90ZM50 86L60 86L64 86" stroke="#141718" stroke-opacity="1.000000" stroke-width="2.500000"/>
		<path id="Vector 1980" d="M52 64L48 64" stroke="#141718" stroke-opacity="1.000000" stroke-width="2.500000" stroke-linejoin="round" stroke-linecap="round"/>
		<path id="Vector 1981" d="M52 72L44 72" stroke="#141718" stroke-opacity="1.000000" stroke-width="2.500000" stroke-linejoin="round" stroke-linecap="round"/>
	</g>
	<path id="Free Shipping" d="M41.6777 119.099L41.6777 120.959L35.7793 120.959L35.7793 125.061L40.3789 125.061L40.3789 126.921L35.7793 126.921L35.7793 133L33.499 133L33.499 119.099L41.6777 119.099ZM46.0793 123.581Q46.5822 122.741 47.4123 122.272Q48.2424 121.799 49.3801 121.799L49.3801 124.162L48.799 124.162Q47.4611 124.162 46.7678 124.841Q46.0793 125.52 46.0793 127.199L46.0793 133L43.799 133L43.799 121.979L46.0793 121.979L46.0793 123.581ZM61.5816 127.219Q61.5816 127.839 61.4986 128.342L53.0806 128.342Q53.1782 129.66 54.0571 130.461Q54.9409 131.262 56.2202 131.262Q58.0611 131.262 58.8179 129.719L61.2788 129.719Q60.7808 131.242 59.4673 132.214Q58.1587 133.181 56.2202 133.181Q54.6382 133.181 53.3882 132.473Q52.1382 131.76 51.4302 130.471Q50.7222 129.182 50.7222 127.482Q50.7222 125.778 51.4107 124.489Q52.0991 123.2 53.3491 122.502Q54.5991 121.799 56.2202 121.799Q57.7779 121.799 58.9986 122.482Q60.2193 123.161 60.898 124.392Q61.5816 125.622 61.5816 127.219ZM59.1987 126.501Q59.1792 125.241 58.3003 124.479Q57.4214 123.718 56.1177 123.718Q54.9409 123.718 54.1011 124.47Q53.2612 125.222 53.1001 126.501L59.1987 126.501ZM73.9216 127.219Q73.9216 127.839 73.8386 128.342L65.4206 128.342Q65.5182 129.66 66.3971 130.461Q67.2809 131.262 68.5602 131.262Q70.4011 131.262 71.1579 129.719L73.6188 129.719Q73.1208 131.242 71.8073 132.214Q70.4987 133.181 68.5602 133.181Q66.9782 133.181 65.7282 132.473Q64.4782 131.76 63.7702 130.471Q63.0622 129.182 63.0622 127.482Q63.0622 125.778 63.7507 124.489Q64.4391 123.2 65.6891 122.502Q66.9391 121.799 68.5602 121.799Q70.1179 121.799 71.3386 122.482Q72.5593 123.161 73.238 124.392Q73.9216 125.622 73.9216 127.219ZM71.5387 126.501Q71.5192 125.241 70.6403 124.479Q69.7614 123.718 68.4577 123.718Q67.2809 123.718 66.4411 124.47Q65.6012 125.222 65.4401 126.501L71.5387 126.501ZM85.9391 133.142Q84.5377 133.142 83.4196 132.653Q82.3014 132.16 81.6618 131.262Q81.0221 130.358 81.0221 129.162L83.4586 129.162Q83.5416 130.061 84.1715 130.642Q84.8014 131.218 85.9391 131.218Q87.1207 131.218 87.7799 130.651Q88.4391 130.08 88.4391 129.182Q88.4391 128.479 88.0289 128.039Q87.6188 127.6 87.0084 127.36Q86.3981 127.121 85.319 126.838Q83.9616 126.481 83.112 126.11Q82.2623 125.739 81.6618 124.963Q81.0612 124.182 81.0612 122.878Q81.0612 121.682 81.6618 120.783Q82.2623 119.88 83.3414 119.401Q84.4205 118.918 85.8414 118.918Q87.858 118.918 89.1471 119.929Q90.4411 120.939 90.5778 122.702L88.0582 122.702Q87.9996 121.94 87.3405 121.403Q86.6813 120.861 85.6022 120.861Q84.6207 120.861 84.0006 121.364Q83.3805 121.862 83.3805 122.8Q83.3805 123.439 83.7711 123.85Q84.1618 124.26 84.7575 124.499Q85.358 124.738 86.3981 125.021Q87.7799 125.402 88.6491 125.783Q89.5182 126.159 90.1286 126.95Q90.7389 127.741 90.7389 129.06Q90.7389 130.119 90.1676 131.062Q89.6012 131.999 88.5075 132.57Q87.4186 133.142 85.9391 133.142ZM99.1422 121.799Q100.402 121.799 101.388 122.341Q102.379 122.878 102.951 123.942Q103.522 125.002 103.522 126.501L103.522 133L101.261 133L101.261 126.838Q101.261 125.358 100.519 124.572Q99.7818 123.781 98.4976 123.781Q97.2183 123.781 96.4664 124.572Q95.7193 125.358 95.7193 126.838L95.7193 133L93.439 133L93.439 118.2L95.7193 118.2L95.7193 123.259Q96.3004 122.561 97.189 122.18Q98.0777 121.799 99.1422 121.799ZM107.581 120.52Q106.961 120.52 106.541 120.1Q106.121 119.68 106.121 119.06Q106.121 118.439 106.541 118.02Q106.961 117.6 107.581 117.6Q108.182 117.6 108.602 118.02Q109.022 118.439 109.022 119.06Q109.022 119.68 108.602 120.1Q108.182 120.52 107.581 120.52ZM108.699 121.979L108.699 133L106.419 133L106.419 121.979L108.699 121.979ZM113.979 123.601Q114.56 122.839 115.561 122.321Q116.562 121.799 117.822 121.799Q119.258 121.799 120.449 122.512Q121.64 123.22 122.319 124.499Q122.998 125.778 122.998 127.438Q122.998 129.099 122.319 130.412Q121.64 131.721 120.449 132.453Q119.258 133.181 117.822 133.181Q116.562 133.181 115.581 132.673Q114.599 132.16 113.979 131.398L113.979 138.239L111.699 138.239L111.699 121.979L113.979 121.979L113.979 123.601ZM120.679 127.438Q120.679 126.301 120.21 125.471Q119.741 124.641 118.97 124.211Q118.198 123.781 117.319 123.781Q116.46 123.781 115.688 124.221Q114.922 124.66 114.448 125.5Q113.979 126.34 113.979 127.482Q113.979 128.62 114.448 129.47Q114.922 130.319 115.688 130.759Q116.46 131.198 117.319 131.198Q118.198 131.198 118.97 130.749Q119.741 130.3 120.21 129.44Q120.679 128.581 120.679 127.438ZM127.539 123.601Q128.12 122.839 129.121 122.321Q130.122 121.799 131.382 121.799Q132.818 121.799 134.009 122.512Q135.2 123.22 135.879 124.499Q136.558 125.778 136.558 127.438Q136.558 129.099 135.879 130.412Q135.2 131.721 134.009 132.453Q132.818 133.181 131.382 133.181Q130.122 133.181 129.141 132.673Q128.159 132.16 127.539 131.398L127.539 138.239L125.259 138.239L125.259 121.979L127.539 121.979L127.539 123.601ZM134.239 127.438Q134.239 126.301 133.77 125.471Q133.301 124.641 132.53 124.211Q131.758 123.781 130.879 123.781Q130.02 123.781 129.248 124.221Q128.482 124.66 128.008 125.5Q127.539 126.34 127.539 127.482Q127.539 128.62 128.008 129.47Q128.482 130.319 129.248 130.759Q130.02 131.198 130.879 131.198Q131.758 131.198 132.53 130.749Q133.301 130.3 133.77 129.44Q134.239 128.581 134.239 127.438ZM139.981 120.52Q139.361 120.52 138.941 120.1Q138.521 119.68 138.521 119.06Q138.521 118.439 138.941 118.02Q139.361 117.6 139.981 117.6Q140.582 117.6 141.002 118.02Q141.422 118.439 141.422 119.06Q141.422 119.68 141.002 120.1Q140.582 120.52 139.981 120.52ZM141.099 121.979L141.099 133L138.819 133L138.819 121.979L141.099 121.979ZM149.661 121.799Q150.959 121.799 151.99 122.341Q153.02 122.878 153.601 123.942Q154.182 125.002 154.182 126.501L154.182 133L151.921 133L151.921 126.838Q151.921 125.358 151.179 124.572Q150.442 123.781 149.158 123.781Q147.878 123.781 147.126 124.572Q146.379 125.358 146.379 126.838L146.379 133L144.099 133L144.099 121.979L146.379 121.979L146.379 123.239Q146.941 122.561 147.81 122.18Q148.679 121.799 149.661 121.799ZM161.522 121.799Q162.802 121.799 163.788 122.312Q164.779 122.819 165.341 123.581L165.341 121.979L167.641 121.979L167.641 133.181Q167.641 134.699 167.001 135.891Q166.361 137.082 165.15 137.761Q163.939 138.439 162.26 138.439Q160.018 138.439 158.539 137.39Q157.059 136.34 156.859 134.538L159.12 134.538Q159.379 135.402 160.228 135.93Q161.078 136.462 162.26 136.462Q163.642 136.462 164.491 135.622Q165.341 134.782 165.341 133.181L165.341 131.34Q164.76 132.121 163.768 132.653Q162.782 133.181 161.522 133.181Q160.082 133.181 158.891 132.453Q157.699 131.721 157.011 130.412Q156.322 129.099 156.322 127.438Q156.322 125.778 157.011 124.499Q157.699 123.22 158.891 122.512Q160.082 121.799 161.522 121.799ZM165.341 127.482Q165.341 126.34 164.867 125.5Q164.398 124.66 163.637 124.221Q162.88 123.781 162.001 123.781Q161.122 123.781 160.36 124.211Q159.599 124.641 159.13 125.471Q158.661 126.301 158.661 127.438Q158.661 128.581 159.13 129.44Q159.599 130.3 160.37 130.749Q161.142 131.198 162.001 131.198Q162.88 131.198 163.637 130.759Q164.398 130.319 164.867 129.47Q165.341 128.62 165.341 127.482Z" fill="#141718" fill-opacity="1.000000" fill-rule="evenodd"/>
	<path id="Order above $200" d="M37.5029 165.099Q36.1426 165.099 35.0215 164.463Q33.9038 163.824 33.251 162.683Q32.6016 161.541 32.6016 160.112Q32.6016 158.687 33.251 157.545Q33.9038 156.404 35.0215 155.768Q36.1426 155.129 37.5029 155.129Q38.8735 155.129 39.9912 155.768Q41.1123 156.404 41.7549 157.539Q42.4009 158.673 42.4009 160.112Q42.4009 161.555 41.7549 162.689Q41.1123 163.824 39.9912 164.463Q38.8735 165.099 37.5029 165.099ZM37.5029 163.992Q38.5249 163.992 39.3418 163.517Q40.1621 163.042 40.6304 162.16Q41.0986 161.274 41.0986 160.112Q41.0986 158.937 40.6304 158.062Q40.1621 157.187 39.3486 156.711Q38.5386 156.236 37.5029 156.236Q36.4673 156.236 35.6538 156.711Q34.8403 157.187 34.3721 158.062Q33.9038 158.937 33.9038 160.112Q33.9038 161.274 34.3721 162.16Q34.8403 163.042 35.6606 163.517Q36.481 163.992 37.5029 163.992ZM45.3556 158.574Q45.6905 157.915 46.3126 157.552Q46.9381 157.187 47.8336 157.187L47.8336 158.502L47.4986 158.502Q45.3556 158.502 45.3556 160.827L45.3556 165L44.0807 165L44.0807 157.327L45.3556 157.327L45.3556 158.574ZM48.8276 161.138Q48.8276 159.958 49.3027 159.07Q49.7812 158.181 50.6117 157.692Q51.4457 157.204 52.4814 157.204Q53.3769 157.204 54.1459 157.617Q54.9184 158.027 55.3251 158.701L55.3251 154.64L56.6103 154.64L56.6103 165L55.3251 165L55.3251 163.558Q54.9457 164.245 54.204 164.686Q53.4623 165.126 52.4677 165.126Q51.4457 165.126 50.6117 164.624Q49.7812 164.118 49.3027 163.209Q48.8276 162.296 48.8276 161.138ZM55.3251 161.151Q55.3251 160.283 54.9731 159.641Q54.6244 158.995 54.0297 158.653Q53.435 158.308 52.7206 158.308Q52.0063 158.308 51.4184 158.646Q50.8305 158.981 50.4784 159.627Q50.1298 160.27 50.1298 161.138Q50.1298 162.02 50.4784 162.669Q50.8305 163.318 51.4184 163.664Q52.0063 164.005 52.7206 164.005Q53.435 164.005 54.0297 163.664Q54.6244 163.318 54.9731 162.669Q55.3251 162.02 55.3251 161.151ZM65.7667 160.871Q65.7667 161.233 65.7256 161.64L59.5938 161.64Q59.6656 162.775 60.3697 163.411Q61.0772 164.046 62.0855 164.046Q62.9127 164.046 63.463 163.664Q64.0167 163.277 64.2422 162.635L65.6129 162.635Q65.3052 163.739 64.3824 164.433Q63.4595 165.126 62.0855 165.126Q60.9952 165.126 60.1339 164.638Q59.2725 164.146 58.7803 163.243Q58.2916 162.341 58.2916 161.151Q58.2916 159.958 58.7667 159.063Q59.2452 158.167 60.1031 157.686Q60.9644 157.204 62.0855 157.204Q63.1793 157.204 64.0167 157.679Q64.8575 158.154 65.3121 158.988Q65.7667 159.818 65.7667 160.871ZM64.4507 160.604Q64.4507 159.876 64.1295 159.354Q63.8082 158.827 63.2545 158.554Q62.7007 158.28 62.0308 158.28Q61.0635 158.28 60.3834 158.896Q59.7066 159.511 59.6075 160.604L64.4507 160.604ZM68.7216 158.574Q69.0565 157.915 69.6786 157.552Q70.3041 157.187 71.1996 157.187L71.1996 158.502L70.8646 158.502Q68.7216 158.502 68.7216 160.827L68.7216 165L67.4467 165L67.4467 157.327L68.7216 157.327L68.7216 158.574ZM75.9316 161.138Q75.9316 159.958 76.4067 159.07Q76.8852 158.181 77.7157 157.692Q78.5497 157.204 79.5717 157.204Q80.58 157.204 81.3217 157.638Q82.0634 158.068 82.4291 158.728L82.4291 157.327L83.7143 157.327L83.7143 165L82.4291 165L82.4291 163.571Q82.0497 164.245 81.3012 164.686Q80.5527 165.126 79.558 165.126Q78.5361 165.126 77.7089 164.624Q76.8852 164.118 76.4067 163.209Q75.9316 162.296 75.9316 161.138ZM82.4291 161.151Q82.4291 160.283 82.0771 159.641Q81.7284 158.995 81.1337 158.653Q80.539 158.308 79.8246 158.308Q79.1103 158.308 78.5224 158.646Q77.9345 158.981 77.5824 159.627Q77.2338 160.27 77.2338 161.138Q77.2338 162.02 77.5824 162.669Q77.9345 163.318 78.5224 163.664Q79.1103 164.005 79.8246 164.005Q80.539 164.005 81.1337 163.664Q81.7284 163.318 82.0771 162.669Q82.4291 162.02 82.4291 161.151ZM87.1456 158.755Q87.5386 158.068 88.294 157.638Q89.0494 157.204 90.0167 157.204Q91.0523 157.204 91.876 157.692Q92.7032 158.181 93.1783 159.07Q93.6568 159.958 93.6568 161.138Q93.6568 162.296 93.1783 163.209Q92.7032 164.118 91.8692 164.624Q91.0386 165.126 90.0167 165.126Q89.022 165.126 88.2735 164.692Q87.525 164.258 87.1456 163.585L87.1456 165L85.8707 165L85.8707 154.64L87.1456 154.64L87.1456 158.755ZM92.3546 161.138Q92.3546 160.27 92.0025 159.627Q91.6539 158.981 91.0591 158.646Q90.4644 158.308 89.7501 158.308Q89.0494 158.308 88.4547 158.653Q87.8599 158.995 87.501 159.647Q87.1456 160.297 87.1456 161.151Q87.1456 162.02 87.501 162.669Q87.8599 163.318 88.4547 163.664Q89.0494 164.005 89.7501 164.005Q90.4644 164.005 91.0591 163.664Q91.6539 163.318 92.0025 162.669Q92.3546 162.02 92.3546 161.138ZM98.6809 165.126Q97.6042 165.126 96.7292 164.638Q95.8542 164.146 95.3552 163.243Q94.8596 162.341 94.8596 161.151Q94.8596 159.976 95.3688 159.073Q95.8815 158.167 96.7634 157.686Q97.6452 157.204 98.739 157.204Q99.8293 157.204 100.711 157.686Q101.593 158.167 102.102 159.063Q102.615 159.958 102.615 161.151Q102.615 162.341 102.089 163.243Q101.566 164.146 100.67 164.638Q99.7746 165.126 98.6809 165.126ZM98.6809 164.005Q99.3679 164.005 99.9694 163.684Q100.571 163.363 100.94 162.72Q101.313 162.074 101.313 161.151Q101.313 160.225 100.947 159.583Q100.585 158.937 99.9968 158.622Q99.4089 158.308 98.7253 158.308Q98.0246 158.308 97.4436 158.622Q96.8625 158.937 96.5104 159.583Q96.1618 160.225 96.1618 161.151Q96.1618 162.088 96.5036 162.734Q96.8488 163.376 97.423 163.691Q97.9973 164.005 98.6809 164.005ZM107.152 163.824L109.531 157.327L110.891 157.327L107.88 165L106.397 165L103.385 157.327L104.76 157.327L107.152 163.824ZM119.149 160.871Q119.149 161.233 119.108 161.64L112.976 161.64Q113.048 162.775 113.752 163.411Q114.459 164.046 115.468 164.046Q116.295 164.046 116.845 163.664Q117.399 163.277 117.624 162.635L118.995 162.635Q118.687 163.739 117.764 164.433Q116.842 165.126 115.468 165.126Q114.377 165.126 113.516 164.638Q112.655 164.146 112.162 163.243Q111.674 162.341 111.674 161.151Q111.674 159.958 112.149 159.063Q112.627 158.167 113.485 157.686Q114.346 157.204 115.468 157.204Q116.561 157.204 117.399 157.679Q118.239 158.154 118.694 158.988Q119.149 159.818 119.149 160.871ZM117.833 160.604Q117.833 159.876 117.511 159.354Q117.19 158.827 116.636 158.554Q116.083 158.28 115.413 158.28Q114.446 158.28 113.765 158.896Q113.089 159.511 112.989 160.604L117.833 160.604ZM130.869 162.327Q130.869 162.997 130.531 163.609Q130.196 164.217 129.543 164.624Q128.894 165.027 127.985 165.085L127.985 166.217L127.229 166.217L127.229 165.085Q125.954 164.973 125.155 164.265Q124.358 163.558 124.344 162.467L125.701 162.467Q125.76 163.055 126.142 163.489Q126.529 163.923 127.229 164.033L127.229 160.533Q126.289 160.297 125.715 160.044Q125.141 159.791 124.734 159.261Q124.331 158.728 124.331 157.833Q124.331 156.698 125.12 155.956Q125.913 155.214 127.229 155.129L127.229 153.967L127.985 153.967L127.985 155.129Q129.174 155.228 129.902 155.895Q130.63 156.558 130.743 157.621L129.383 157.621Q129.314 157.132 128.949 156.735Q128.586 156.335 127.985 156.209L127.985 159.624Q128.907 159.863 129.489 160.109Q130.07 160.352 130.469 160.885Q130.869 161.415 130.869 162.327ZM125.633 157.761Q125.633 158.448 126.036 158.813Q126.443 159.176 127.229 159.415L127.229 156.182Q126.501 156.25 126.067 156.65Q125.633 157.046 125.633 157.761ZM127.985 164.046Q128.74 163.964 129.167 163.503Q129.594 163.042 129.594 162.396Q129.594 161.708 129.174 161.339Q128.754 160.967 127.985 160.745L127.985 164.046ZM132.912 163.978Q134.69 162.549 135.698 161.633Q136.706 160.717 137.397 159.716Q138.091 158.714 138.091 157.747Q138.091 156.838 137.65 156.315Q137.209 155.789 136.231 155.789Q135.278 155.789 134.751 156.383Q134.228 156.978 134.187 157.973L132.953 157.973Q133.011 156.404 133.907 155.549Q134.802 154.695 136.218 154.695Q137.656 154.695 138.504 155.495Q139.352 156.291 139.352 157.692Q139.352 158.854 138.658 159.955Q137.968 161.052 137.082 161.886Q136.2 162.717 134.83 163.824L139.646 163.824L139.646 164.887L132.912 164.887L132.912 163.978ZM141.116 159.835Q141.116 157.426 141.899 156.076Q142.685 154.726 144.644 154.726Q146.588 154.726 147.371 156.076Q148.157 157.426 148.157 159.835Q148.157 162.283 147.371 163.643Q146.588 165 144.644 165Q142.685 165 141.899 163.643Q141.116 162.283 141.116 159.835ZM146.899 159.835Q146.899 158.615 146.735 157.771Q146.575 156.923 146.079 156.407Q145.583 155.888 144.644 155.888Q143.693 155.888 143.194 156.407Q142.699 156.923 142.538 157.771Q142.377 158.615 142.377 159.835Q142.377 161.093 142.538 161.948Q142.699 162.802 143.194 163.322Q143.693 163.838 144.644 163.838Q145.583 163.838 146.079 163.322Q146.575 162.802 146.735 161.948Q146.899 161.093 146.899 159.835ZM149.908 159.835Q149.908 157.426 150.691 156.076Q151.477 154.726 153.436 154.726Q155.38 154.726 156.163 156.076Q156.949 157.426 156.949 159.835Q156.949 162.283 156.163 163.643Q155.38 165 153.436 165Q151.477 165 150.691 163.643Q149.908 162.283 149.908 159.835ZM155.691 159.835Q155.691 158.615 155.527 157.771Q155.367 156.923 154.871 156.407Q154.375 155.888 153.436 155.888Q152.485 155.888 151.986 156.407Q151.491 156.923 151.33 157.771Q151.169 158.615 151.169 159.835Q151.169 161.093 151.33 161.948Q151.491 162.802 151.986 163.322Q152.485 163.838 153.436 163.838Q154.375 163.838 154.871 163.322Q155.367 162.802 155.527 161.948Q155.691 161.093 155.691 159.835Z" fill="#6C7275" fill-opacity="1.000000" fill-rule="evenodd"/>
</svg>
