<svg width="262.000000" height="220.000000" viewBox="0 0 262 220" fill="none" xmlns="http://www.w3.org/2000/svg" xmlns:xlink="http://www.w3.org/1999/xlink">
	<desc>
			Created with Pixso.
	</desc>
	<defs>
		<clipPath id="clip50_3662">
			<rect id="finance and payment/outline/money" width="48.000000" height="48.000000" transform="translate(32.000000 48.000000)" fill="white" fill-opacity="0"/>
		</clipPath>
	</defs>
	<rect id="card 2" width="262.000000" height="220.000000" fill="#F3F5F7" fill-opacity="1.000000"/>
	<g clip-path="url(#clip50_3662)">
		<rect id="Rectangle 856" x="36.000000" y="56.000000" rx="4.000000" width="40.000000" height="32.000000" stroke="#141718" stroke-opacity="1.000000" stroke-width="2.500000"/>
		<circle id="Ellipse 730" r="4.000000" transform="matrix(1 -1 0 0 56 72)" stroke="#141718" stroke-opacity="1.000000" stroke-width="2.500000"/>
		<circle id="Ellipse 732" r="2.000000" transform="matrix(1 -1 0 0 68 72)" fill="#141718" fill-opacity="1.000000"/>
		<circle id="Ellipse 733" r="2.000000" transform="matrix(1 -1 0 0 44 72)" fill="#141718" fill-opacity="1.000000"/>
	</g>
	<path id="Money-back" d="M48.1377 119.099L48.1377 133L45.8623 133L45.8623 123.479L41.6191 133L40.042 133L35.7793 123.479L35.7793 133L33.499 133L33.499 119.099L35.96 119.099L40.8379 130.002L45.7012 119.099L48.1377 119.099ZM55.9193 133.181Q54.3617 133.181 53.1019 132.473Q51.8421 131.76 51.1195 130.471Q50.4017 129.182 50.4017 127.482Q50.4017 125.798 51.139 124.499Q51.8812 123.2 53.1605 122.502Q54.4398 121.799 56.0218 121.799Q57.599 121.799 58.8783 122.502Q60.1576 123.2 60.8998 124.499Q61.642 125.798 61.642 127.482Q61.642 129.162 60.8802 130.461Q60.1185 131.76 58.8099 132.473Q57.5013 133.181 55.9193 133.181ZM55.9193 131.198Q56.7982 131.198 57.5697 130.778Q58.3412 130.358 58.8197 129.519Q59.2982 128.679 59.2982 127.482Q59.2982 126.281 58.8392 125.451Q58.3802 124.621 57.6185 124.201Q56.8617 123.781 55.9779 123.781Q55.099 123.781 54.347 124.201Q53.6 124.621 53.1605 125.451Q52.7211 126.281 52.7211 127.482Q52.7211 129.26 53.6293 130.231Q54.5423 131.198 55.9193 131.198ZM69.4605 121.799Q70.7594 121.799 71.7896 122.341Q72.8199 122.878 73.401 123.942Q73.982 125.002 73.982 126.501L73.982 133L71.7213 133L71.7213 126.838Q71.7213 125.358 70.9791 124.572Q70.2418 123.781 68.9576 123.781Q67.6783 123.781 66.9264 124.572Q66.1793 125.358 66.1793 126.838L66.1793 133L63.899 133L63.899 121.979L66.1793 121.979L66.1793 123.239Q66.7408 122.561 67.61 122.18Q68.4791 121.799 69.4605 121.799ZM86.9816 127.219Q86.9816 127.839 86.8986 128.342L78.4806 128.342Q78.5782 129.66 79.4571 130.461Q80.3409 131.262 81.6202 131.262Q83.4611 131.262 84.2179 129.719L86.6788 129.719Q86.1808 131.242 84.8673 132.214Q83.5587 133.181 81.6202 133.181Q80.0382 133.181 78.7882 132.473Q77.5382 131.76 76.8302 130.471Q76.1222 129.182 76.1222 127.482Q76.1222 125.778 76.8107 124.489Q77.4991 123.2 78.7491 122.502Q79.9991 121.799 81.6202 121.799Q83.1778 121.799 84.3986 122.482Q85.6193 123.161 86.298 124.392Q86.9816 125.622 86.9816 127.219ZM84.5987 126.501Q84.5792 125.241 83.7003 124.479Q82.8214 123.718 81.5177 123.718Q80.3409 123.718 79.5011 124.47Q78.6612 125.222 78.5001 126.501L84.5987 126.501ZM99.1409 121.979L92.3782 138.181L90.0198 138.181L92.261 132.819L87.9202 121.979L90.4593 121.979L93.5598 130.378L96.7776 121.979L99.1409 121.979ZM109.321 124.802L109.321 126.721L101.098 126.721L101.098 124.802L109.321 124.802ZM114.839 123.62Q115.42 122.819 116.431 122.312Q117.442 121.799 118.682 121.799Q120.142 121.799 121.319 122.502Q122.5 123.2 123.179 124.489Q123.858 125.778 123.858 127.438Q123.858 129.099 123.179 130.412Q122.5 131.721 121.309 132.453Q120.118 133.181 118.682 133.181Q117.398 133.181 116.407 132.683Q115.42 132.18 114.839 131.398L114.839 133L112.559 133L112.559 118.2L114.839 118.2L114.839 123.62ZM121.539 127.438Q121.539 126.301 121.07 125.471Q120.601 124.641 119.83 124.211Q119.058 123.781 118.179 123.781Q117.32 123.781 116.548 124.221Q115.782 124.66 115.308 125.5Q114.839 126.34 114.839 127.482Q114.839 128.62 115.308 129.47Q115.782 130.319 116.548 130.759Q117.32 131.198 118.179 131.198Q119.058 131.198 119.83 130.749Q120.601 130.3 121.07 129.44Q121.539 128.581 121.539 127.438ZM125.362 127.438Q125.362 125.778 126.051 124.499Q126.739 123.22 127.931 122.512Q129.122 121.799 130.562 121.799Q131.861 121.799 132.828 122.312Q133.8 122.819 134.381 123.581L134.381 121.979L136.681 121.979L136.681 133L134.381 133L134.381 131.359Q133.8 132.141 132.799 132.663Q131.798 133.181 130.518 133.181Q129.102 133.181 127.921 132.453Q126.739 131.721 126.051 130.412Q125.362 129.099 125.362 127.438ZM134.381 127.482Q134.381 126.34 133.907 125.5Q133.438 124.66 132.677 124.221Q131.92 123.781 131.041 123.781Q130.162 123.781 129.4 124.211Q128.639 124.641 128.17 125.471Q127.701 126.301 127.701 127.438Q127.701 128.581 128.17 129.44Q128.639 130.3 129.41 130.749Q130.182 131.198 131.041 131.198Q131.92 131.198 132.677 130.759Q133.438 130.319 133.907 129.47Q134.381 128.62 134.381 127.482ZM138.922 127.482Q138.922 125.778 139.611 124.489Q140.299 123.2 141.52 122.502Q142.741 121.799 144.318 121.799Q146.32 121.799 147.628 122.751Q148.942 123.698 149.401 125.461L146.94 125.461Q146.642 124.641 145.978 124.182Q145.319 123.718 144.318 123.718Q142.921 123.718 142.091 124.709Q141.261 125.7 141.261 127.482Q141.261 129.26 142.091 130.261Q142.921 131.262 144.318 131.262Q146.3 131.262 146.94 129.519L149.401 129.519Q148.922 131.198 147.599 132.189Q146.281 133.181 144.318 133.181Q142.741 133.181 141.52 132.473Q140.299 131.76 139.611 130.471Q138.922 129.182 138.922 127.482ZM156.039 127.502L161.122 133L158.041 133L153.959 128.259L153.959 133L151.679 133L151.679 118.2L153.959 118.2L153.959 126.799L157.958 121.979L161.122 121.979L156.039 127.502Z" fill="#141718" fill-opacity="1.000000" fill-rule="evenodd"/>
	<path id="30 days guarantee" d="M32.8408 157.426Q32.9365 156.137 33.832 155.409Q34.731 154.681 36.1597 154.681Q37.1099 154.681 37.8037 155.026Q38.4976 155.368 38.853 155.956Q39.2085 156.544 39.2085 157.286Q39.2085 158.154 38.7129 158.786Q38.2173 159.415 37.4175 159.596L37.4175 159.665Q38.3267 159.89 38.8599 160.55Q39.3931 161.206 39.3931 162.269Q39.3931 163.069 39.0273 163.705Q38.665 164.34 37.937 164.706Q37.209 165.068 36.187 165.068Q34.7036 165.068 33.75 164.292Q32.7964 163.517 32.687 162.088L33.9175 162.088Q34.0166 162.929 34.6045 163.462Q35.1924 163.992 36.1733 163.992Q37.1509 163.992 37.6602 163.482Q38.1729 162.97 38.1729 162.16Q38.1729 161.107 37.4722 160.646Q36.7749 160.184 35.3599 160.184L35.0386 160.184L35.0386 159.121L35.3735 159.121Q36.6621 159.107 37.3184 158.694Q37.978 158.28 37.978 157.412Q37.978 156.67 37.4927 156.223Q37.0107 155.775 36.1152 155.775Q35.2471 155.775 34.7139 156.223Q34.1841 156.67 34.085 157.426L32.8408 157.426ZM41.1142 159.835Q41.1142 157.426 41.8969 156.076Q42.683 154.726 44.6415 154.726Q46.5863 154.726 47.369 156.076Q48.1552 157.426 48.1552 159.835Q48.1552 162.283 47.369 163.643Q46.5863 165 44.6415 165Q42.683 165 41.8969 163.643Q41.1142 162.283 41.1142 159.835ZM46.8974 159.835Q46.8974 158.615 46.7333 157.771Q46.5727 156.923 46.0771 156.407Q45.5815 155.888 44.6415 155.888Q43.6913 155.888 43.1923 156.407Q42.6967 156.923 42.536 157.771Q42.3754 158.615 42.3754 159.835Q42.3754 161.093 42.536 161.948Q42.6967 162.802 43.1923 163.322Q43.6913 163.838 44.6415 163.838Q45.5815 163.838 46.0771 163.322Q46.5727 162.802 46.7333 161.948Q46.8974 161.093 46.8974 159.835ZM53.3776 161.138Q53.3776 159.958 53.8527 159.07Q54.3312 158.181 55.1617 157.692Q55.9957 157.204 57.0314 157.204Q57.9269 157.204 58.6959 157.617Q59.4684 158.027 59.8751 158.701L59.8751 154.64L61.1603 154.64L61.1603 165L59.8751 165L59.8751 163.558Q59.4957 164.245 58.754 164.686Q58.0123 165.126 57.0177 165.126Q55.9957 165.126 55.1617 164.624Q54.3312 164.118 53.8527 163.209Q53.3776 162.296 53.3776 161.138ZM59.8751 161.151Q59.8751 160.283 59.5231 159.641Q59.1744 158.995 58.5797 158.653Q57.985 158.308 57.2706 158.308Q56.5563 158.308 55.9684 158.646Q55.3805 158.981 55.0284 159.627Q54.6798 160.27 54.6798 161.138Q54.6798 162.02 55.0284 162.669Q55.3805 163.318 55.9684 163.664Q56.5563 164.005 57.2706 164.005Q57.985 164.005 58.5797 163.664Q59.1744 163.318 59.5231 162.669Q59.8751 162.02 59.8751 161.151ZM62.8416 161.138Q62.8416 159.958 63.3167 159.07Q63.7952 158.181 64.6257 157.692Q65.4597 157.204 66.4817 157.204Q67.49 157.204 68.2317 157.638Q68.9734 158.068 69.3391 158.728L69.3391 157.327L70.6243 157.327L70.6243 165L69.3391 165L69.3391 163.571Q68.9597 164.245 68.2112 164.686Q67.4627 165.126 66.468 165.126Q65.4461 165.126 64.6189 164.624Q63.7952 164.118 63.3167 163.209Q62.8416 162.296 62.8416 161.138ZM69.3391 161.151Q69.3391 160.283 68.9871 159.641Q68.6384 158.995 68.0437 158.653Q67.449 158.308 66.7346 158.308Q66.0203 158.308 65.4324 158.646Q64.8445 158.981 64.4924 159.627Q64.1438 160.27 64.1438 161.138Q64.1438 162.02 64.4924 162.669Q64.8445 163.318 65.4324 163.664Q66.0203 164.005 66.7346 164.005Q67.449 164.005 68.0437 163.664Q68.6384 163.318 68.9871 162.669Q69.3391 162.02 69.3391 161.151ZM79.391 157.327L74.7699 168.613L73.454 168.613L74.9647 164.915L71.8715 157.327L73.2865 157.327L75.6928 163.544L78.0751 157.327L79.391 157.327ZM83.3799 165.126Q82.4981 165.126 81.7974 164.826Q81.0967 164.525 80.69 163.985Q80.2867 163.445 80.2457 162.748L81.5616 162.748Q81.6163 163.318 82.0982 163.684Q82.5836 164.046 83.3663 164.046Q84.0943 164.046 84.5147 163.725Q84.9351 163.404 84.9351 162.915Q84.9351 162.409 84.4874 162.167Q84.0396 161.92 83.0997 161.681Q82.2452 161.459 81.7051 161.23Q81.1685 160.998 80.7823 160.543Q80.3995 160.085 80.3995 159.343Q80.3995 158.755 80.7481 158.267Q81.0967 157.774 81.7393 157.491Q82.3853 157.204 83.2125 157.204Q84.4874 157.204 85.2701 157.846Q86.0528 158.489 86.1109 159.61L84.836 159.61Q84.795 159.008 84.3541 158.646Q83.9131 158.28 83.1714 158.28Q82.4844 158.28 82.0777 158.574Q81.671 158.868 81.671 159.343Q81.671 159.723 81.9171 159.969Q82.1631 160.211 82.5323 160.358Q82.9048 160.505 83.5611 160.687Q84.3882 160.912 84.9044 161.131Q85.4239 161.346 85.793 161.78Q86.1656 162.214 86.1793 162.915Q86.1793 163.544 85.8272 164.05Q85.4786 164.552 84.8428 164.839Q84.2071 165.126 83.3799 165.126ZM94.8737 157.204Q95.8683 157.204 96.6169 157.638Q97.3654 158.068 97.7311 158.728L97.7311 157.327L99.0163 157.327L99.0163 165.167Q99.0163 166.217 98.5685 167.037Q98.1208 167.857 97.2868 168.319Q96.4562 168.78 95.3488 168.78Q93.8381 168.78 92.8298 168.066Q91.8215 167.352 91.6403 166.121L92.9015 166.121Q93.11 166.818 93.7663 167.246Q94.4259 167.673 95.3488 167.673Q96.4015 167.673 97.0646 167.013Q97.7311 166.357 97.7311 165.167L97.7311 163.558Q97.3517 164.231 96.61 164.679Q95.8683 165.126 94.8737 165.126Q93.8517 165.126 93.0177 164.624Q92.1872 164.118 91.7087 163.209Q91.2336 162.296 91.2336 161.138Q91.2336 159.958 91.7087 159.07Q92.1872 158.181 93.0177 157.692Q93.8517 157.204 94.8737 157.204ZM97.7311 161.151Q97.7311 160.283 97.3791 159.641Q97.0304 158.995 96.4357 158.653Q95.841 158.308 95.1266 158.308Q94.4123 158.308 93.8244 158.646Q93.2365 158.981 92.8844 159.627Q92.5358 160.27 92.5358 161.138Q92.5358 162.02 92.8844 162.669Q93.2365 163.318 93.8244 163.664Q94.4123 164.005 95.1266 164.005Q95.841 164.005 96.4357 163.664Q97.0304 163.318 97.3791 162.669Q97.7311 162.02 97.7311 161.151ZM107.978 157.327L107.978 165L106.703 165L106.703 163.865Q106.341 164.453 105.688 164.785Q105.038 165.113 104.256 165.113Q103.357 165.113 102.642 164.744Q101.931 164.371 101.518 163.629Q101.104 162.888 101.104 161.821L101.104 157.327L102.366 157.327L102.366 161.654Q102.366 162.789 102.936 163.397Q103.511 164.005 104.505 164.005Q105.527 164.005 106.115 163.376Q106.703 162.748 106.703 161.541L106.703 157.327L107.978 157.327ZM109.658 161.138Q109.658 159.958 110.133 159.07Q110.611 158.181 111.442 157.692Q112.276 157.204 113.298 157.204Q114.306 157.204 115.048 157.638Q115.789 158.068 116.155 158.728L116.155 157.327L117.44 157.327L117.44 165L116.155 165L116.155 163.571Q115.776 164.245 115.027 164.686Q114.279 165.126 113.284 165.126Q112.262 165.126 111.435 164.624Q110.611 164.118 110.133 163.209Q109.658 162.296 109.658 161.138ZM116.155 161.151Q116.155 160.283 115.803 159.641Q115.454 158.995 114.86 158.653Q114.265 158.308 113.551 158.308Q112.836 158.308 112.248 158.646Q111.66 158.981 111.308 159.627Q110.96 160.27 110.96 161.138Q110.96 162.02 111.308 162.669Q111.66 163.318 112.248 163.664Q112.836 164.005 113.551 164.005Q114.265 164.005 114.86 163.664Q115.454 163.318 115.803 162.669Q116.155 162.02 116.155 161.151ZM120.872 158.574Q121.207 157.915 121.829 157.552Q122.454 157.187 123.35 157.187L123.35 158.502L123.015 158.502Q120.872 158.502 120.872 160.827L120.872 165L119.597 165L119.597 157.327L120.872 157.327L120.872 158.574ZM124.344 161.138Q124.344 159.958 124.819 159.07Q125.297 158.181 126.128 157.692Q126.962 157.204 127.984 157.204Q128.992 157.204 129.734 157.638Q130.475 158.068 130.841 158.728L130.841 157.327L132.126 157.327L132.126 165L130.841 165L130.841 163.571Q130.462 164.245 129.713 164.686Q128.965 165.126 127.97 165.126Q126.948 165.126 126.121 164.624Q125.297 164.118 124.819 163.209Q124.344 162.296 124.344 161.138ZM130.841 161.151Q130.841 160.283 130.489 159.641Q130.14 158.995 129.546 158.653Q128.951 158.308 128.237 158.308Q127.522 158.308 126.934 158.646Q126.346 158.981 125.994 159.627Q125.646 160.27 125.646 161.138Q125.646 162.02 125.994 162.669Q126.346 163.318 126.934 163.664Q127.522 164.005 128.237 164.005Q128.951 164.005 129.546 163.664Q130.14 163.318 130.489 162.669Q130.841 162.02 130.841 161.151ZM138.022 157.187Q139.423 157.187 140.291 158.034Q141.16 158.882 141.16 160.478L141.16 165L139.898 165L139.898 160.659Q139.898 159.511 139.324 158.902Q138.75 158.294 137.755 158.294Q136.747 158.294 136.152 158.926Q135.558 159.555 135.558 160.758L135.558 165L134.283 165L134.283 157.327L135.558 157.327L135.558 158.42Q135.937 157.833 136.586 157.511Q137.239 157.187 138.022 157.187ZM144.798 158.379L144.798 162.901Q144.798 163.458 145.034 163.691Q145.273 163.923 145.861 163.923L146.801 163.923L146.801 165L145.652 165Q144.589 165 144.056 164.511Q143.523 164.019 143.523 162.901L143.523 158.379L142.528 158.379L142.528 157.327L143.523 157.327L143.523 155.396L144.798 155.396L144.798 157.327L146.801 157.327L146.801 158.379L144.798 158.379ZM155.339 160.871Q155.339 161.233 155.298 161.64L149.166 161.64Q149.238 162.775 149.942 163.411Q150.649 164.046 151.658 164.046Q152.485 164.046 153.035 163.664Q153.589 163.277 153.814 162.635L155.185 162.635Q154.877 163.739 153.954 164.433Q153.032 165.126 151.658 165.126Q150.567 165.126 149.706 164.638Q148.845 164.146 148.352 163.243Q147.864 162.341 147.864 161.151Q147.864 159.958 148.339 159.063Q148.817 158.167 149.675 157.686Q150.536 157.204 151.658 157.204Q152.751 157.204 153.589 157.679Q154.429 158.154 154.884 158.988Q155.339 159.818 155.339 160.871ZM154.023 160.604Q154.023 159.876 153.701 159.354Q153.38 158.827 152.826 158.554Q152.273 158.28 151.603 158.28Q150.636 158.28 149.955 158.896Q149.279 159.511 149.179 160.604L154.023 160.604ZM164.019 160.871Q164.019 161.233 163.978 161.64L157.846 161.64Q157.918 162.775 158.622 163.411Q159.329 164.046 160.338 164.046Q161.165 164.046 161.715 163.664Q162.269 163.277 162.494 162.635L163.865 162.635Q163.557 163.739 162.634 164.433Q161.712 165.126 160.338 165.126Q159.247 165.126 158.386 164.638Q157.525 164.146 157.032 163.243Q156.544 162.341 156.544 161.151Q156.544 159.958 157.019 159.063Q157.497 158.167 158.355 157.686Q159.216 157.204 160.338 157.204Q161.431 157.204 162.269 157.679Q163.109 158.154 163.564 158.988Q164.019 159.818 164.019 160.871ZM162.703 160.604Q162.703 159.876 162.381 159.354Q162.06 158.827 161.506 158.554Q160.953 158.28 160.283 158.28Q159.316 158.28 158.635 158.896Q157.959 159.511 157.859 160.604L162.703 160.604Z" fill="#6C7275" fill-opacity="1.000000" fill-rule="evenodd"/>
</svg>
