<svg width="74.715912" height="18.697266" viewBox="0 0 74.7159 18.6973" fill="none" xmlns="http://www.w3.org/2000/svg" xmlns:xlink="http://www.w3.org/1999/xlink">
	<desc>
			Created with Pixso.
	</desc>
	<defs/>
	<path id="Furnis." d="M9.81443 1.79883L9.81443 4.03125L2.7363 4.03125L2.7363 8.95312L8.25583 8.95312L8.25583 11.1855L2.7363 11.1855L2.7363 18.4805L-2.67029e-05 18.4805L-2.67029e-05 1.79883L9.81443 1.79883ZM24.3365 5.25586L24.3365 18.4805L21.6002 18.4805L21.6002 16.9219Q20.9557 17.7363 19.9068 18.2051Q18.8639 18.6738 17.692 18.6738Q16.1276 18.6738 14.8912 18.0293Q13.6549 17.3789 12.9459 16.1074Q12.2428 14.8301 12.2428 13.0312L12.2428 5.25586L14.9557 5.25586L14.9557 12.627Q14.9557 14.4023 15.8404 15.3516Q16.7311 16.2949 18.2662 16.2949Q19.8014 16.2949 20.6979 15.3516Q21.6002 14.4023 21.6002 12.627L21.6002 5.25586L24.3365 5.25586ZM30.6723 7.17773Q31.2758 6.16992 32.2719 5.60742Q33.268 5.03906 34.6332 5.03906L34.6332 7.875L33.936 7.875Q32.3305 7.875 31.4985 8.68945Q30.6723 9.50391 30.6723 11.5195L30.6723 18.4805L27.936 18.4805L27.936 5.25586L30.6723 5.25586L30.6723 7.17773ZM43.8258 5.03906Q45.3844 5.03906 46.6207 5.68945Q47.8571 6.33398 48.5543 7.61133Q49.2516 8.88281 49.2516 10.6816L49.2516 18.4805L46.5387 18.4805L46.5387 11.0859Q46.5387 9.31055 45.6481 8.36719Q44.7633 7.41797 43.2223 7.41797Q41.6871 7.41797 40.7848 8.36719Q39.8883 9.31055 39.8883 11.0859L39.8883 18.4805L37.152 18.4805L37.152 5.25586L39.8883 5.25586L39.8883 6.76758Q40.5621 5.95312 41.6051 5.49609Q42.6481 5.03906 43.8258 5.03906ZM54.1225 3.50391Q53.3784 3.50391 52.8745 3Q52.3706 2.49609 52.3706 1.75195Q52.3706 1.00781 52.8745 0.503906Q53.3784 0 54.1225 0Q54.8432 0 55.3471 0.503906Q55.851 1.00781 55.851 1.75195Q55.851 2.49609 55.3471 3Q54.8432 3.50391 54.1225 3.50391ZM55.4643 5.25586L55.4643 18.4805L52.728 18.4805L52.728 5.25586L55.4643 5.25586ZM63.8628 18.6973Q62.3042 18.6973 61.0679 18.1348Q59.8316 17.5664 59.1108 16.5996Q58.396 15.627 58.3433 14.4258L61.1792 14.4258Q61.2495 15.2637 61.9819 15.832Q62.7144 16.3945 63.8159 16.3945Q64.9702 16.3945 65.603 15.9492Q66.2417 15.5039 66.2417 14.8066Q66.2417 14.0625 65.5327 13.7051Q64.8237 13.3418 63.2886 12.9141Q61.8003 12.5039 60.8628 12.123Q59.9312 11.7363 59.2456 10.9453Q58.5601 10.1543 58.5601 8.85938Q58.5601 7.79883 59.1812 6.92578Q59.8081 6.04688 60.9683 5.54297Q62.1343 5.03906 63.6519 5.03906Q65.9077 5.03906 67.2847 6.18164Q68.6675 7.31836 68.7612 9.28711L66.0249 9.28711Q65.9546 8.40234 65.3042 7.875Q64.6597 7.3418 63.5523 7.3418Q62.4741 7.3418 61.8941 7.75195Q61.3198 8.16211 61.3198 8.83008Q61.3198 9.36328 61.7007 9.7207Q62.0874 10.0781 62.6382 10.2832Q63.1948 10.4883 64.273 10.7988Q65.7144 11.1855 66.6343 11.584Q67.5601 11.9766 68.2339 12.7441Q68.9077 13.5117 68.9312 14.7832Q68.9312 15.9141 68.3042 16.8047Q67.6831 17.6895 66.5405 18.1934Q65.4038 18.6973 63.8628 18.6973Z" fill="#FFFFFF" fill-opacity="1.000000" fill-rule="evenodd"/>
	<path id="Furnis." d="M72.9874 18.6504Q72.2433 18.6504 71.7393 18.1465Q71.2354 17.6426 71.2354 16.8984Q71.2354 16.1543 71.7393 15.6504Q72.2433 15.1465 72.9874 15.1465Q73.7022 15.1465 74.2061 15.6504Q74.7159 16.1543 74.7159 16.8984Q74.7159 17.6426 74.2061 18.1465Q73.7022 18.6504 72.9874 18.6504Z" fill="#6C7275" fill-opacity="1.000000" fill-rule="evenodd"/>
</svg>
