<svg width="125" height="32" viewBox="0 0 125 32" fill="none" xmlns="http://www.w3.org/2000/svg">
<path d="M16.4381 3.2V6.92H4.63813V15.12H13.8381V18.84H4.63813V31H0.0781251V3.2H16.4381ZM40.6241 8.96V31H36.0641V28.4C35.3441 29.3067 34.3974 30.0267 33.2241 30.56C32.0774 31.0667 30.8507 31.32 29.5441 31.32C27.8107 31.32 26.2507 30.96 24.8641 30.24C23.5041 29.52 22.4241 28.4533 21.6241 27.04C20.8507 25.6267 20.4641 23.92 20.4641 21.92V8.96H24.9841V21.24C24.9841 23.2133 25.4774 24.7333 26.4641 25.8C27.4507 26.84 28.7974 27.36 30.5041 27.36C32.2107 27.36 33.5574 26.84 34.5441 25.8C35.5574 24.7333 36.0641 23.2133 36.0641 21.24V8.96H40.6241ZM51.2006 12.16C51.8673 11.04 52.7473 10.1733 53.8406 9.56C54.9606 8.92 56.2806 8.6 57.8006 8.6V13.32H56.6406C54.854 13.32 53.494 13.7733 52.5606 14.68C51.654 15.5867 51.2006 17.16 51.2006 19.4V31H46.6406V8.96H51.2006V12.16ZM73.1122 8.6C74.8455 8.6 76.3922 8.96 77.7522 9.68C79.1389 10.4 80.2189 11.4667 80.9922 12.88C81.7655 14.2933 82.1522 16 82.1522 18V31H77.6322V18.68C77.6322 16.7067 77.1389 15.2 76.1522 14.16C75.1655 13.0933 73.8189 12.56 72.1122 12.56C70.4055 12.56 69.0455 13.0933 68.0322 14.16C67.0455 15.2 66.5522 16.7067 66.5522 18.68V31H61.9922V8.96H66.5522V11.48C67.2989 10.5733 68.2455 9.86667 69.3922 9.36C70.5655 8.85333 71.8055 8.6 73.1122 8.6ZM90.2888 6.04C89.4621 6.04 88.7688 5.76 88.2088 5.2C87.6488 4.64 87.3688 3.94667 87.3688 3.12C87.3688 2.29333 87.6488 1.6 88.2088 1.04C88.7688 0.479999 89.4621 0.199998 90.2888 0.199998C91.0888 0.199998 91.7688 0.479999 92.3288 1.04C92.8888 1.6 93.1688 2.29333 93.1688 3.12C93.1688 3.94667 92.8888 4.64 92.3288 5.2C91.7688 5.76 91.0888 6.04 90.2888 6.04ZM92.5288 8.96V31H87.9688V8.96H92.5288ZM106.516 31.36C104.782 31.36 103.222 31.0533 101.836 30.44C100.476 29.8 99.3956 28.9467 98.5956 27.88C97.7956 26.7867 97.369 25.5733 97.3156 24.24H102.036C102.116 25.1733 102.556 25.96 103.356 26.6C104.182 27.2133 105.209 27.52 106.436 27.52C107.716 27.52 108.702 27.28 109.396 26.8C110.116 26.2933 110.476 25.6533 110.476 24.88C110.476 24.0533 110.076 23.44 109.276 23.04C108.502 22.64 107.262 22.2 105.556 21.72C103.902 21.2667 102.556 20.8267 101.516 20.4C100.476 19.9733 99.569 19.32 98.7956 18.44C98.049 17.56 97.6756 16.4 97.6756 14.96C97.6756 13.7867 98.0223 12.72 98.7156 11.76C99.409 10.7733 100.396 10 101.676 9.44C102.982 8.88 104.476 8.6 106.156 8.6C108.662 8.6 110.676 9.24 112.196 10.52C113.742 11.7733 114.569 13.4933 114.676 15.68H110.116C110.036 14.6933 109.636 13.9067 108.916 13.32C108.196 12.7333 107.222 12.44 105.996 12.44C104.796 12.44 103.876 12.6667 103.236 13.12C102.596 13.5733 102.276 14.1733 102.276 14.92C102.276 15.5067 102.489 16 102.916 16.4C103.342 16.8 103.862 17.12 104.476 17.36C105.089 17.5733 105.996 17.8533 107.196 18.2C108.796 18.6267 110.102 19.0667 111.116 19.52C112.156 19.9467 113.049 20.5867 113.796 21.44C114.542 22.2933 114.929 23.4267 114.956 24.84C114.956 26.0933 114.609 27.2133 113.916 28.2C113.222 29.1867 112.236 29.96 110.956 30.52C109.702 31.08 108.222 31.36 106.516 31.36ZM121.723 31.28C120.896 31.28 120.203 31 119.643 30.44C119.083 29.88 118.803 29.1867 118.803 28.36C118.803 27.5333 119.083 26.84 119.643 26.28C120.203 25.72 120.896 25.44 121.723 25.44C122.523 25.44 123.203 25.72 123.763 26.28C124.323 26.84 124.603 27.5333 124.603 28.36C124.603 29.1867 124.323 29.88 123.763 30.44C123.203 31 122.523 31.28 121.723 31.28Z" fill="#021641"/>
</svg>
