<svg width="105" height="24" viewBox="0 0 105 24" fill="none" xmlns="http://www.w3.org/2000/svg">
<path d="M21.6629 3.32V5.552H14.5829V10.472H20.1029V12.704H14.5829V20H11.8469V3.32H21.6629ZM36.1744 6.776V20H33.4384V18.44C33.0064 18.984 32.4384 19.416 31.7344 19.736C31.0464 20.04 30.3104 20.192 29.5264 20.192C28.4864 20.192 27.5504 19.976 26.7184 19.544C25.9024 19.112 25.2544 18.472 24.7744 17.624C24.3104 16.776 24.0784 15.752 24.0784 14.552V6.776H26.7904V14.144C26.7904 15.328 27.0864 16.24 27.6784 16.88C28.2704 17.504 29.0784 17.816 30.1024 17.816C31.1264 17.816 31.9344 17.504 32.5264 16.88C33.1344 16.24 33.4384 15.328 33.4384 14.144V6.776H36.1744ZM42.5204 8.696C42.9204 8.024 43.4484 7.504 44.1044 7.136C44.7764 6.752 45.5684 6.56 46.4804 6.56V9.392H45.7844C44.7124 9.392 43.8964 9.664 43.3364 10.208C42.7924 10.752 42.5204 11.696 42.5204 13.04V20H39.7844V6.776H42.5204V8.696ZM55.6673 6.56C56.7073 6.56 57.6353 6.776 58.4513 7.208C59.2833 7.64 59.9313 8.28 60.3953 9.128C60.8593 9.976 61.0913 11 61.0913 12.2V20H58.3793V12.608C58.3793 11.424 58.0833 10.52 57.4913 9.896C56.8993 9.256 56.0913 8.936 55.0673 8.936C54.0433 8.936 53.2273 9.256 52.6193 9.896C52.0273 10.52 51.7313 11.424 51.7313 12.608V20H48.9953V6.776H51.7313V8.288C52.1793 7.744 52.7473 7.32 53.4353 7.016C54.1393 6.712 54.8833 6.56 55.6673 6.56ZM65.9733 5.024C65.4773 5.024 65.0613 4.856 64.7253 4.52C64.3893 4.184 64.2213 3.768 64.2213 3.272C64.2213 2.776 64.3893 2.36 64.7253 2.024C65.0613 1.688 65.4773 1.52 65.9733 1.52C66.4533 1.52 66.8613 1.688 67.1973 2.024C67.5333 2.36 67.7013 2.776 67.7013 3.272C67.7013 3.768 67.5333 4.184 67.1973 4.52C66.8613 4.856 66.4533 5.024 65.9733 5.024ZM67.3173 6.776V20H64.5813V6.776H67.3173ZM75.7094 20.216C74.6694 20.216 73.7334 20.032 72.9014 19.664C72.0854 19.28 71.4374 18.768 70.9574 18.128C70.4774 17.472 70.2214 16.744 70.1894 15.944H73.0214C73.0694 16.504 73.3334 16.976 73.8134 17.36C74.3094 17.728 74.9254 17.912 75.6614 17.912C76.4294 17.912 77.0214 17.768 77.4374 17.48C77.8694 17.176 78.0854 16.792 78.0854 16.328C78.0854 15.832 77.8454 15.464 77.3654 15.224C76.9014 14.984 76.1574 14.72 75.1334 14.432C74.1414 14.16 73.3334 13.896 72.7094 13.64C72.0854 13.384 71.5414 12.992 71.0774 12.464C70.6294 11.936 70.4054 11.24 70.4054 10.376C70.4054 9.672 70.6134 9.032 71.0294 8.456C71.4454 7.864 72.0374 7.4 72.8054 7.064C73.5894 6.728 74.4854 6.56 75.4934 6.56C76.9974 6.56 78.2054 6.944 79.1174 7.712C80.0454 8.464 80.5414 9.496 80.6054 10.808H77.8694C77.8214 10.216 77.5814 9.744 77.1494 9.392C76.7174 9.04 76.1334 8.864 75.3974 8.864C74.6774 8.864 74.1254 9 73.7414 9.272C73.3574 9.544 73.1654 9.904 73.1654 10.352C73.1654 10.704 73.2934 11 73.5494 11.24C73.8054 11.48 74.1174 11.672 74.4854 11.816C74.8534 11.944 75.3974 12.112 76.1174 12.32C77.0774 12.576 77.8614 12.84 78.4694 13.112C79.0934 13.368 79.6294 13.752 80.0774 14.264C80.5254 14.776 80.7574 15.456 80.7734 16.304C80.7734 17.056 80.5654 17.728 80.1494 18.32C79.7334 18.912 79.1414 19.376 78.3734 19.712C77.6214 20.048 76.7334 20.216 75.7094 20.216ZM84.8337 20.168C84.3377 20.168 83.9217 20 83.5857 19.664C83.2497 19.328 83.0817 18.912 83.0817 18.416C83.0817 17.92 83.2497 17.504 83.5857 17.168C83.9217 16.832 84.3377 16.664 84.8337 16.664C85.3137 16.664 85.7217 16.832 86.0577 17.168C86.3937 17.504 86.5617 17.92 86.5617 18.416C86.5617 18.912 86.3937 19.328 86.0577 19.664C85.7217 20 85.3137 20.168 84.8337 20.168Z" fill="#232627" fill-opacity="0.95"/>
</svg>
